<?xml version="1.0" encoding="utf-8"?>
<!-- Generator: $$$/GeneralStr/196=Adobe Illustrator 27.6.0, SVG Export Plug-In . SVG Version: 6.00 Build 0)  -->
<svg version="1.1" id="图层_1" xmlns="http://www.w3.org/2000/svg" xmlns:xlink="http://www.w3.org/1999/xlink" x="0px" y="0px"
	 viewBox="0 0 37.9 37.9" style="enable-background:new 0 0 37.9 37.9;" xml:space="preserve">
<style type="text/css">
	.st0{clip-path:url(#SVGID_00000127023547043614143970000000662801757897914530_);}
	.st1{fill:#FFFEFF;}
	.st2{fill:#FEFEFE;}
	.st3{fill:#09409E;}
	.st4{fill:#03308C;}
	.st5{fill:#073592;}
	.st6{fill:#88C74C;}
	.st7{fill:#0D47A9;}
	.st8{fill:#7596CA;}
	.st9{fill:#2264B7;}
	.st10{fill:#8CC630;}
	.st11{fill:#A4D730;}
	.st12{fill:#031C70;}
	.st13{fill:#DAEA30;}
	.st14{fill:#B4E231;}
	.st15{fill:#02148A;}
	.st16{fill:#C7E630;}
	.st17{fill:#1052B2;}
	.st18{fill:#D5E3F1;}
	.st19{fill:#B7DC86;}
	.st20{fill:#E7EFF7;}
	.st21{fill:#96C1DD;}
	.st22{fill:#03257C;}
	.st23{fill:#2F8ACA;}
	.st24{fill:#7CBE30;}
	.st25{fill:#6BB430;}
	.st26{fill:#71B730;}
	.st27{fill:#94CD32;}
	.st28{fill:#33C1EB;}
	.st29{fill:#1659B7;}
	.st30{fill:#0788C5;}
</style>
<g>
	<defs>
		<path id="SVGID_1_" d="M37.6,19C37.2,43.5,0.7,43.5,0.3,19C0.7-5.6,37.2-5.6,37.6,19z"/>
	</defs>
	<clipPath id="SVGID_00000176033059334042707610000001528306773237960113_">
		<use xlink:href="#SVGID_1_"  style="overflow:visible;"/>
	</clipPath>
	<g style="clip-path:url(#SVGID_00000176033059334042707610000001528306773237960113_);">
		<g>
			<path class="st1" d="M-2.6-6.7c15.5,0,31,0,46.5,0c0.4,16.3,0,32.6,0.2,48.9c-0.6-0.1-0.5-0.6-0.5-0.9c0-15.1,0-30.3,0-45.4
				c0-0.2,0-0.5,0-0.7c0-0.2-0.2-0.3-0.3-0.4c-0.1,1.1,0,2.1,0,3.1c0,5.3,0,10.6,0,15.9c0,1-0.4,1.9-0.3,2.9c0.2,3.5,0.3,7,0.3,10.5
				c0,4.1,0,8.2,0,12.4c0,0.7,0.1,1.3-0.3,1.9c-0.1,0.2-0.3,0.4-0.5,0.5C42.1,42,41.8,42,41.5,42c-7.4,0-14.8,0-22.1,0
				c-1.3,0-2.6-0.1-3.9-0.1c-4.5,0-9,0.1-13.5,0.1c-1.2,0-2.4,0-3.7,0c-0.8,0-1.5-0.1-2.3-0.1c-0.4,0-0.8,0-0.9,0.5
				c0,0.4-0.3,0.4-0.6,0.4c0-16.5,0-33.1,0-49.6c0.1,0,0.3,0,0.4,0c0.2,1.1,0.6,2,1.9,2.1c0-0.3,0-0.6,0-0.7c0.5,0,1,0,1.5,0
				c5.5-0.1,11,0.1,16.5-0.2c5.2-0.3,10.4,0,15.6,0.1c3.7,0,7.5,0,11.2,0c0.3,0,0.6,0.2,0.8,0.1c0.3,0,0.7-0.2,1-0.3
				c0.1,0,0.2-0.4,0.1-0.4c-0.2-0.1-0.5-0.2-0.8-0.3c-0.1,0-0.3,0-0.5,0c-14.6,0-29.3,0-43.9,0c-0.2,0-0.4,0-0.6,0
				C-2.4-6.5-2.5-6.6-2.6-6.7z M13.3-0.2C13.3-0.2,13.3-0.2,13.3-0.2C13.2-0.1,13,0,12.9,0c-0.5,0-1,0-1.5,0
				c-0.1,0.1-0.2,0.3-0.3,0.4c0,0-0.1,0-0.1,0c-0.2,0-0.5,0-0.7,0C9.9,0.2,9.5-0.1,9.2,0.6c0,0-0.1,0-0.1,0C8.6,0,8.1,0,7.4,0.1
				C6.8,0.3,7,0.8,6.9,1.2c0,0.2-0.3,0.3-0.4,0.4C5.9,2,5.4,2.2,4.8,2.5c0,0-0.1,0.1-0.1,0.2C5.1,3.3,4.6,3.6,4.2,4
				C3.9,4.2,3.7,4.5,3.5,4.8C3.1,5.5,2.5,6,1.7,6.4C1.5,6.5,1.3,6.7,1.2,6.8C1.2,7.9,0.4,8.6,0,9.4c-0.2,0.3-0.2,0.6,0.1,0.9
				c0,0.2,0,0.4,0,0.5c-0.4,0.1-1,0-1.2,0.3c-0.4,0.5-0.6,1.2-0.7,1.8c-0.1,0.8-0.1,1.6-0.2,2.4c0,0.5,0,0.9-0.1,1.4
				c-0.1,0.8-0.5,1.7-0.4,2.5c0.1,1.4,0.4,2.8,0.7,4.2c0,0.1,0.1,0.3,0.2,0.3C-1,24-1,24.3-1.2,24.8c-0.1,0.5-0.4,1.1,0.5,1.3
				c0.3,0.1,0.6,0.4,0.2,0.8c-0.1,0.1-0.1,0.3-0.2,0.5c0.9-0.3,0.9-0.3,1.3,0.5C0.7,28.3,0.7,28.7,1,29c0.4,0.5,0.8,1.1,1.3,1.2
				c0.9,0.1,1.2,0.7,1.4,1.3C4.1,32.8,4,32.8,3,33.6c0.8,0.6,1.2-0.9,2.1-0.5c-0.1,0.7-0.6,1.4,0.4,1.7c-0.3,0.7-0.7,1.4,0.2,1.9
				c0.2,0.1,0.4,0.2,0.6,0.1c0.1-0.1,0.2-0.3,0.2-0.5c0-0.3-0.1-0.7-0.2-1c0.1-0.1,0.1-0.1,0.2-0.2c0.3,0.6,0.7,1.2,1.4,1
				c0,0,0,0.1,0,0.1c-0.1,0.3-0.3,0.6-0.4,0.9c0,0,0.2,0.2,0.4,0.2c0.8,0.2,1.7,0.4,2.5,0.6c0.3,0.1,0.6,0.1,0.7-0.3
				c0.1,0,0.2,0,0.3,0c0.2,0.3,0.3,0.6,0.5,0.8c0.2,0.2,0.5,0.3,0.6-0.1c0.2,0,0.4,0,0.7,0c0.2,0,0.4,0,0.7,0
				c-0.1,0.2-0.3,0.4-0.4,0.6c-0.1,0.2-0.3,0.4-0.4,0.6c0.2,0.1,0.4,0.3,0.7,0.3c1.2,0,2.5,0,3.7,0c1.8,0,3.7,0,5.5,0
				c0.3,0,1,0,0.8-0.8c0-0.1,0.3-0.2,0.4-0.3c0.2-0.1,0.5-0.2,0.7-0.3c0.1,0,0.2,0,0.3,0c0.5,0.1,1.1,0.2,1.6,0.2
				c0.1,0,0.2-0.1,0.3-0.1c0.5-0.2,1-0.5,1.5-0.7c0.9-0.3,1.7-0.5,2.6-0.8c0.1,0,0.3-0.2,0.4-0.3c0.4-0.6,0.8-1.2,1.3-1.9
				c0.7,0.4,0.9-0.2,1-0.8c0.4,0,0.7,0.1,0.9,0.1c0-0.3,0.1-0.6,0-0.8c-0.1-0.4-0.1-0.7,0.3-0.8c0.6,0.4,1,0.4,1.3-0.1
				c0.3-0.5,0.5-1,0.7-1.5c0-0.1,0-0.2,0-0.3c-0.4-0.6-0.1-1.1,0.2-1.6c0.4-0.6,0.7-1.2,1.1-1.7c0.2-0.2,0.5-0.6,0.7-0.6
				c0.7,0.2,0.8-0.3,0.8-0.7c0-0.8,0-1.6,0.5-2.3c0.1-0.2,0.1-0.4,0.1-0.6c0-0.6-0.1-1.2-0.1-1.7c0-1.1,0-2.3,0-3.5
				c0.3,0,0.5,0,0.7,0c0-0.2,0-0.4,0-0.6c-0.7,0-1.1-0.6-1.3-1.8c-0.1-0.8,0.6-0.5,0.9-0.7c0-0.3,0-0.6,0-1
				c-0.2,0.3-0.4,0.6-0.6,0.8c-0.1,0-0.2-0.1-0.3-0.1c0.1-0.5,0.2-1,0.2-1.5c-0.2,0-0.3,0-0.4,0.1c-0.5,0.3-0.8,0.1-0.9-0.4
				c-0.2-0.5-0.4-1.1-0.7-1.5c-0.7-0.9-1.1-1.8-0.8-3c0.2-0.9-0.2-1.5-0.9-1.4c-0.3,0.1-0.5,0.3-0.8,0.5c-0.5-0.4-1.2-0.7-1.5-1.2
				c-0.5-0.9-0.8-1.9-1.1-2.8c-1-0.1-1.4-1-2-1.6c-0.4-0.4-0.6-1.1-1.5-0.9c-0.6,0.1-0.7,0-0.6-0.6c0-0.2-0.2-0.7-0.3-0.7
				c-0.9,0.1-1.5-0.4-2.3-0.7c-0.7-0.3-1.7-0.1-2.5-0.1c-0.1,0-0.2,0.1-0.4,0.2c-0.7,0.2-1.4,0.6-2.2,0.1c-0.2-0.1-0.4-0.1-0.7-0.1
				C19-1.2,17.4-1.1,15.8-1c-0.6,0-1.1,0.2-1.7,0.4c-0.1,0-0.2,0-0.3,0c-0.1,0.1-0.3,0.1-0.4,0.2c0,0,0,0.1,0,0.1
				C13.4-0.3,13.3-0.2,13.3-0.2z M32.7,36.7c0.3-0.1,0.6-0.2,0.9-0.4c-0.6-0.5-0.7-0.5-0.8,0.2C32.7,36.6,32.6,36.6,32.7,36.7
				c-0.1,0-0.1,0-0.1,0.1C32.6,36.8,32.7,36.7,32.7,36.7z M27.1,40c0.4-0.3,0.7-0.5,1-0.8c0.1-0.1,0.3-0.2,0.5-0.3
				c-0.1-0.1-0.2-0.4-0.2-0.4c-0.2,0-0.5,0.1-0.7,0.2c-0.3,0.3-0.4,0.6-0.6,0.9C27,39.8,27.1,39.9,27.1,40z M24.1,39.9
				c0.5,0.6,1,0.5,1.4,0C25,39.9,24.5,39.9,24.1,39.9z M16.8,41c0,0.1,0.1,0.2,0.1,0.2c0.4-0.2,0.7-0.4,1.1-0.6
				c0-0.1-0.1-0.1-0.1-0.2C17.4,40.3,17.1,40.6,16.8,41z M21.9,40.4c0,0.1,0,0.2,0,0.3c0.4,0,0.8,0,1.2,0c0-0.1,0-0.2,0-0.2
				C22.7,40.5,22.3,40.5,21.9,40.4z M14.8,41.1c0-0.1,0.1-0.2,0.1-0.3c-0.3-0.2-0.6-0.3-0.8-0.5c-0.1,0.1-0.1,0.2-0.2,0.3
				C14.2,40.8,14.5,41,14.8,41.1z M-2.9,13.6c-0.1,0-0.2,0.1-0.3,0.1C-3.1,14-3,14.2-3,14.4c0.1,0,0.3-0.1,0.3-0.1
				C-2.7,14.1-2.8,13.9-2.9,13.6z M38.4,30.4c0.1,0,0.2,0,0.3,0c0-0.2,0-0.5,0.1-0.7c-0.1,0-0.2,0-0.3,0
				C38.5,29.9,38.4,30.2,38.4,30.4z M34,36c0.1,0,0.2,0,0.3,0.1c0-0.2,0.1-0.4,0.1-0.5c-0.1,0-0.3-0.1-0.3-0.1
				C34,35.7,34,35.8,34,36z M-0.1,8.9c0-0.1,0.1-0.1,0.1-0.2c-0.2-0.1-0.3-0.2-0.5-0.3c0,0.1-0.1,0.2-0.1,0.3
				C-0.5,8.8-0.3,8.8-0.1,8.9z M16.4,40.7c0-0.1,0-0.2,0-0.3c-0.2,0-0.4,0-0.6,0c0,0.1,0,0.1,0,0.2C16,40.7,16.2,40.7,16.4,40.7z
				 M3.7,3.4c0-0.1,0-0.1,0-0.2c-0.2,0-0.4-0.1-0.5-0.1c0,0.1,0,0.2,0,0.2C3.3,3.4,3.5,3.4,3.7,3.4z M13.2,40.5c0-0.1,0-0.2,0.1-0.2
				c-0.1,0-0.3-0.1-0.4-0.1c0,0.1-0.1,0.2,0,0.2C12.9,40.5,13,40.5,13.2,40.5z M-3,22.1c-0.1,0-0.1,0-0.2-0.1
				c-0.1,0.1-0.1,0.3-0.2,0.4c0.1,0,0.1,0.1,0.2,0.1C-3.1,22.3-3.1,22.2-3,22.1z M20.6,40.7c-0.1,0-0.1-0.1-0.2-0.1
				c-0.1,0-0.1,0.1-0.1,0.2c0.1,0,0.1,0.1,0.2,0.1C20.5,40.8,20.5,40.7,20.6,40.7z M36.3,33.5c0,0-0.1,0.1,0,0.1c0,0,0.1,0,0.1,0.1
				c0,0,0.1-0.1,0-0.1C36.4,33.6,36.4,33.6,36.3,33.5z"/>
			<path class="st2" d="M-5.5,42.9c0.3,0,0.5,0,0.6-0.4c0-0.5,0.5-0.6,0.9-0.5c0.8,0,1.5,0.1,2.3,0.1c1.2,0,2.4,0,3.7,0
				c4.5,0,9-0.1,13.5-0.1c1.3,0,2.6,0.1,3.9,0.1c7.4,0,14.8,0,22.1,0c0.3,0,0.6,0,0.9-0.1c0.2-0.1,0.4-0.3,0.5-0.5
				c0.3-0.6,0.3-1.3,0.3-1.9c0-4.1,0-8.2,0-12.4c0-3.5-0.1-7-0.3-10.5c-0.1-1,0.3-1.9,0.3-2.9c0-5.3,0-10.6,0-15.9c0-1-0.1-2,0-3.1
				c0.1,0.1,0.3,0.2,0.3,0.4c0.1,0.2,0,0.4,0,0.7c0,15.1,0,30.3,0,45.4c0,0.3-0.2,0.8,0.5,0.9c-0.2-16.3,0.2-32.6-0.2-48.9
				c0.2,0,0.5,0,0.7,0c0,16.7,0,33.3,0,50c-16.7,0-33.3,0-50,0C-5.5,43.1-5.5,43-5.5,42.9z"/>
			<path class="st2" d="M-2.6-6.7c0.1,0.1,0.2,0.2,0.3,0.3c0.2,0,0.4,0,0.6,0c14.6,0,29.3,0,43.9,0c0.2,0,0.3,0,0.5,0
				c0.3,0.1,0.5,0.2,0.8,0.3c0,0,0,0.4-0.1,0.4c-0.3,0.2-0.6,0.3-1,0.3c-0.3,0-0.6-0.1-0.8-0.1c-3.7,0-7.5,0-11.2,0
				c-5.2,0-10.4-0.3-15.6-0.1C9.3-5.3,3.8-5.5-1.7-5.4c-0.5,0-1,0-1.5,0c0,0.2,0,0.5,0,0.7c-1.3-0.1-1.7-1-1.9-2.1
				c0.2,0,0.5,0,0.7,0c0.4,0.4,1,0.4,1.4,0C-2.9-6.7-2.8-6.7-2.6-6.7z"/>
			<path class="st1" d="M-3-6.7c-0.4,0.4-1,0.4-1.4,0C-3.9-6.7-3.5-6.7-3-6.7z"/>
			<path class="st2" d="M14.1-0.6C14.7-0.8,15.2-1,15.8-1c1.6-0.1,3.2-0.2,4.8-0.3c0.2,0,0.5,0,0.7,0.1c0.8,0.4,1.4,0,2.2-0.1
				c0.1,0,0.2-0.1,0.4-0.2c0.8,0,1.8-0.2,2.5,0.1c0.7,0.3,1.4,0.9,2.3,0.7c0.1,0,0.3,0.4,0.3,0.7c0,0.6,0.1,0.8,0.6,0.6
				c0.8-0.2,1,0.5,1.5,0.9c0.6,0.6,1,1.6,2,1.6c0.4,1,0.6,2,1.1,2.8c0.3,0.5,1,0.8,1.5,1.2c0.3-0.2,0.5-0.4,0.8-0.5
				c0.6-0.1,1.1,0.5,0.9,1.4c-0.3,1.2,0.1,2.1,0.8,3c0.3,0.4,0.6,1,0.7,1.5c0.2,0.6,0.4,0.8,0.9,0.4c0.1-0.1,0.2,0,0.4-0.1
				c-0.1,0.6-0.2,1.1-0.2,1.5c0.1,0,0.2,0.1,0.3,0.1c0.2-0.2,0.3-0.5,0.6-0.8c0,0.4,0,0.7,0,1c-0.3,0.2-1-0.1-0.9,0.7
				c0.2,1.2,0.6,1.8,1.3,1.8c0,0.2,0,0.4,0,0.6c-0.2,0-0.4,0-0.7,0c0,1.2,0,2.3,0,3.5c0,0.6,0.1,1.2,0.1,1.7c0,0.2,0,0.5-0.1,0.6
				c-0.6,0.7-0.5,1.5-0.5,2.3c0,0.5,0,0.9-0.8,0.7c-0.2,0-0.6,0.3-0.7,0.6c-0.4,0.5-0.7,1.2-1.1,1.7c-0.3,0.5-0.6,1-0.2,1.6
				c0,0.1,0.1,0.2,0,0.3c-0.2,0.5-0.4,1.1-0.7,1.5c-0.3,0.5-0.7,0.6-1.3,0.1c-0.5,0.1-0.4,0.4-0.3,0.8c0.1,0.3,0,0.5,0,0.8
				c-0.3,0-0.5,0-0.9-0.1c-0.1,0.6-0.4,1.2-1,0.8c-0.5,0.7-0.9,1.3-1.3,1.9c-0.1,0.1-0.2,0.2-0.4,0.3c-0.9,0.3-1.7,0.5-2.6,0.8
				c-0.5,0.2-1,0.5-1.5,0.7c-0.1,0-0.2,0.1-0.3,0.1c-0.5-0.1-1.1-0.2-1.6-0.2c0.4-0.2,0.7-0.5,1.1-0.7c0.4-0.1,0.7-0.2,1.1-0.3
				c0.7,0.2,1.9-0.3,2.3-0.9c0.7-0.4,1.5-0.8,1.9-1.6c0.1-0.1,0.2-0.3,0.2-0.4c0.2,0,0.3-0.1,0.5-0.1c0.3,0,1.4-0.9,1.3-1.1
				c-0.4-1,0.4-0.6,0.8-0.8c0.1-0.1,0.2-0.1,0.3-0.2c0.5-0.7,1-1.4,1.5-2.2c0.3-0.6,0.6-1.2,0.8-1.9c0.1-0.3,0.2-0.6,0.4-0.9
				c0.7-0.9,1-1.8,0.9-2.9c0-0.2,0.1-0.4,0.1-0.6c0.2-0.1,0.4-0.3,0.6-0.4c0,0,0,0,0,0c0,0,0-0.1,0-0.1c0-0.4,0-0.7,0-1.1
				c0,0,0,0,0,0c0,0,0-0.1,0-0.1c0-0.3,0-0.6,0-0.8c0-0.2,0-0.4,0-0.5c0-0.2,0-0.4,0-0.6c0-0.2,0-0.3,0-0.5c-0.2-1.5,0.2-3-0.7-4.4
				c-0.4-0.6-0.3-1.5-0.5-2.3c-0.1-1.1-0.7-1.9-1.4-2.7c-0.2-0.3-0.3-0.7-0.5-1c-0.6-0.8-1.1-1.5-1.7-2.2c-0.2-0.2-0.6-0.2-0.8-0.3
				c0,0,0-0.1-0.1-0.1c-0.1-0.1-0.1-0.1-0.2-0.2c-0.1,0-0.1,0-0.2,0c-0.4-0.3-0.6-0.6-0.5-1.1c0.2,0,0.4,0,0.6,0
				c0-0.1,0-0.2,0.1-0.3c-0.2-0.1-0.5-0.2-0.7-0.2c-0.3-0.2-0.6-0.5-0.9-0.7c-0.3-0.5-0.5-1-0.8-1.5c-0.3-0.6-0.8-0.9-1.5-0.8
				c-0.5,0-0.6-0.2-0.6-0.6c0-0.2-0.2-0.3-0.3-0.5c-0.2,0-0.4,0-0.7,0c-0.1,0-0.2,0-0.3,0c0.2-0.3,0.4-0.6,0.7-1
				c-1.2-0.2-1.8,0.1-1.9,0.8c-0.1,0-0.2,0.1-0.3,0.1c-0.2,0-0.3-0.1-0.5-0.1c-0.1-0.1-0.1-0.2-0.2-0.2c-0.2,0-0.4,0-0.7,0
				c-0.1,0-0.2-0.1-0.3-0.1c-0.5-0.6-1.1-0.6-1.8-0.5c-0.4,0-0.8,0-1.2,0c-1,0-2.1,0-3.1,0c-0.2,0-0.4-0.1-0.6-0.1
				C16.4-0.6,15.3-0.6,14.1-0.6z M29.8,1.3c0-0.1-0.1-0.1-0.1-0.1c0,0-0.1,0.1-0.1,0.1c0,0,0,0.1,0.1,0.1
				C29.7,1.4,29.8,1.4,29.8,1.3z"/>
			<path class="st3" d="M10.3,0.5c0.2,0,0.5,0,0.7,0C10.9,1,9.9,0.9,10.1,1.6C9.4,2.3,9,3,9.1,4c0,0.5-0.1,0.7-0.7,0.4
				C8,4.2,7.8,4.3,8,4.8c0.2,0.6,0.5,1.2,0.9,1.7c0.2,0.4,0.5,0.9,0.9,1c0.7,0.2,0.5,0.8,0.6,1.2c0,0.1-0.5,0.3-0.7,0.4
				C9.4,9.1,9.1,9.3,9.1,9.4c0,0.2,0.2,0.5,0.4,0.7c0.1,0.1,0.3,0.1,0.5,0.2c0,0.5,0.2,1,0.1,1.5c-0.1,0.6,0.1,0.6,0.6,0.6
				c0.2,0,0.3-0.1,0.4-0.1c0.1,0.3,0,0.6,0.2,0.7c0.3,0.4,0.7,0.8,1.1,1.2c0.5,0.4,1,0.9,1.5,1c0.6,0.1,0.7,0.3,0.9,0.6
				c-0.2,0.3-0.3,0.5-0.5,0.7c-0.8,0-1.7-0.1-2.5-0.1c-0.6,0-1.2,0-1.8,0.1c-0.3,0.1-0.5,0.3-0.8,0.4c-0.1,0-0.3,0-0.4,0
				c-0.5-0.4-0.7-1.2-1.5-1.3c0,0-0.1-0.3,0-0.5c0-0.1,0.2-0.3,0.3-0.4c-1.1-0.8-1.1-1.3-0.3-2.3c0.2-0.2,0.3-0.5-0.2-0.6
				c-0.4-0.1-0.5-0.4-0.4-0.8c0.1-0.4,0-0.9,0-1.3c0-0.1-0.3-0.3-0.4-0.3C6.2,9.3,6,9.6,6,9.7c0,0.6,0,1.3,0.2,1.9
				c0.1,0.5-0.1,0.8-0.4,1c-0.2-0.6-0.4-1.1-0.6-1.7c0-0.1,0-0.3,0-0.4c0.2-0.8,0.2-1.4-0.7-1.6c0,0,0-0.1,0-0.2
				c0.2-0.2,0.5-0.4,0.8-0.6C5,7.9,4.8,7.7,4.7,7.5c-0.1-0.3-0.4-0.7-0.3-1c0.3-0.7,0.3-1.6,1-2.1C5.9,4,6.4,3.6,7,3.2
				C7.3,3,7.5,2.8,7.3,2.4C7.6,2.2,7.9,2,8.1,1.8c0.3-0.2,0.6-0.3,0.9-0.4c0,0,0.1-0.1,0.1-0.1c0.2,0,0.4,0,0.5,0c0-0.2,0-0.4,0-0.5
				C9.9,0.6,10.1,0.6,10.3,0.5z M7.9,14.7C8,14.6,8,14.6,8.1,14.5c0.1-0.1,0.2-0.2,0.2-0.3c0-0.1-0.2-0.3-0.3-0.3
				c-0.1,0-0.3,0.2-0.3,0.3C7.7,14.4,7.8,14.5,7.9,14.7z M5.5,4.7c0,0.1-0.1,0.2-0.1,0.3C5.6,5,5.7,5,5.9,5c0,0,0.1-0.2,0.1-0.2
				C5.8,4.8,5.7,4.7,5.5,4.7z"/>
			<path class="st4" d="M13.4-0.3c0,0,0-0.1,0-0.1c0.1,0,0.3,0,0.4,0c0.1,0,0.3,0,0.4,0c-0.6,1.3-0.3,3.3,0.6,3.8
				c0.2-0.1,0.3-0.1,0.5-0.2c0,0.4,0,0.7,0,1.1c0.6-0.3,1.1-0.8,1.6,0c-0.3,0.2-0.5,0.5-0.9,0.7c0.2,0.1,0.5,0.2,0.6,0.4
				c0.1,0.1,0.2,0.3,0.2,0.4c-0.1,0.5-0.2,0.9-0.4,1.3c-0.2,0.4-0.1,0.6,0.4,0.6c0.2,0,0.4,0.2,0.4,0.4c0,0.1-0.2,0.3-0.3,0.4
				c-0.5,0.2-0.4,0.5-0.1,0.8c0.2,0.2,0.4,0.5,0.6,0.8c0.5,1,1,1.3,2.1,1.1c0.1,0,0.2,0,0.3,0.1c0.1,0.1,0.2,0.2,0.2,0.3
				c-0.2,0-0.3,0.1-0.5,0.1c-0.4,0.1-0.9,0.1-1.3,0.2c-0.3,0.1-0.7,0.2-0.9,0.4c-0.1,0.1,0,0.5,0.1,0.8c1.2-1,1.4-1.1,2.2-0.6
				c-0.1,0.4-0.3,0.8-0.4,1.2c0,0.1,0,0.3,0.1,0.5c0.4,0.7,0.9,1.3,1.3,2c0.1,0.1,0,0.2,0,0.3c-0.3,0-0.7,0-1,0
				c0.1,0.3,0.2,0.6,0.3,0.9c0,0.1,0,0.1,0,0.2c-0.9,0-1.6-0.8-2.5-0.6c-0.1,0-0.3-0.2-0.3-0.3c-0.2-0.5-0.5-0.6-1-0.4
				c-0.1,0-0.2,0-0.3,0c-0.2,0-0.3-0.1-0.4-0.2c0.1-0.1,0.2-0.3,0.3-0.4c0.2-0.2,0.5-0.3,0.8-0.4c0-0.1,0-0.1,0-0.2
				c-0.3-0.1-0.5-0.1-0.8-0.2c-0.1-0.1-0.3-0.2-0.4-0.3c0.4-0.5,0-0.9-0.1-1.4c-0.1-0.2,0.1-0.5,0.2-0.8c0.1-0.2,0.2-0.4,0.3-0.6
				c-0.2-0.1-0.5-0.1-0.7-0.2c-0.2-0.1-0.5-0.2-0.7-0.3c0.2-0.2,0.3-0.4,0.5-0.6c0.1-0.1,0.4-0.3,0.4-0.4c0-0.2-0.2-0.4-0.3-0.5
				c-0.1-0.1-0.4-0.2-0.5-0.3c-0.3-0.6-0.6-0.6-1-0.2c-0.1,0.1-0.3,0.1-0.5,0.1c0-0.2,0-0.4,0.1-0.5c0.1-0.1,0.2-0.2,0.4-0.3
				c0.4-0.3,0.4-0.6,0-0.9c-0.1-0.1-0.2-0.2-0.4-0.3c0-0.1,0.1-0.2,0.1-0.2c0.7-0.8,0.6-0.8-0.1-1.6c-0.4-0.5-0.8-1-1.2-1.5
				C11.8,4.1,11.8,4,11.9,4c0.3-0.1,0.6-0.3,0.8-0.4c-0.2-0.2-0.4-0.4-0.6-0.6c-0.3-0.3-0.7-0.5-0.6-1c0.1-0.4,0.2-0.9,0.2-1.4
				C12.3,0.5,13,0.9,13.1,0c0.1-0.1,0.1-0.2,0.2-0.2c0,0,0,0,0,0C13.3-0.2,13.4-0.3,13.4-0.3z M16.6,13.1c-0.1,0-0.3,0-0.4,0
				c-0.1,0.3-0.3,0.7-0.3,1c0,0.1,0.5,0.2,0.8,0.3c0.1-0.1,0.1-0.1,0.2-0.2C16.8,13.8,16.7,13.5,16.6,13.1z M14.7,8.6
				c0,0.1,0,0.3,0,0.4c0.3,0,0.6-0.1,0.9-0.1c0,0,0-0.3,0-0.4C15.3,8.5,15,8.5,14.7,8.6z"/>
			<path class="st5" d="M11.8,0.6c-0.1,0.5-0.1,0.9-0.2,1.4c-0.2,0.6,0.3,0.7,0.6,1c0.2,0.2,0.4,0.4,0.6,0.6
				c-0.3,0.1-0.6,0.3-0.8,0.4c-0.1,0-0.1,0.1-0.3,0.1c0.4,0.5,0.8,1,1.2,1.5c0.7,0.8,0.7,0.8,0.1,1.6c0,0-0.1,0.1-0.1,0.2
				c0.1,0.1,0.2,0.2,0.4,0.3c0.5,0.3,0.4,0.6,0,0.9c-0.1,0.1-0.3,0.2-0.4,0.3c-0.1,0.2-0.1,0.3-0.1,0.5c0.2,0,0.4,0,0.5-0.1
				c0.4-0.5,0.7-0.4,1,0.2c0.1,0.2,0.3,0.2,0.5,0.3c0.1,0.2,0.3,0.3,0.3,0.5c0,0.1-0.3,0.2-0.4,0.4c-0.2,0.2-0.4,0.4-0.5,0.6
				c0.2,0.1,0.5,0.3,0.7,0.3c0.2,0.1,0.5,0.1,0.7,0.2c-0.1,0.2-0.2,0.4-0.3,0.6c-0.1,0.3-0.2,0.5-0.2,0.8c0.1,0.5,0.5,0.9,0.1,1.4
				c0.1,0.1,0.2,0.2,0.4,0.3c0.3,0.1,0.5,0.2,0.8,0.2c0,0.1,0,0.1,0,0.2c-0.3,0.1-0.5,0.3-0.8,0.4c-0.1,0.1-0.2,0.3-0.3,0.4
				c0.1,0.1,0.3,0.2,0.4,0.2c0.1,0,0.2,0,0.3,0c0.5-0.2,0.8-0.1,1,0.4c0.1,0.1,0.2,0.3,0.3,0.3c0.9-0.2,1.6,0.6,2.5,0.6
				c0.3,0,0.6,0,1,0c0.8-0.2,1.7-0.3,2.5-0.5c-0.1,0.2-0.1,0.4-0.2,0.7c0,0-0.1,0.1-0.1,0.1c-0.6-0.2-1,0.1-1.5,0.4
				c-0.1,0-0.3,0-0.4,0c0,0-0.1,0-0.1,0c-0.1,0-0.3,0-0.4,0c-0.4,0-0.8,0-1.2,0c-0.6,0-1.2,0-1.7,0c-0.1,0-0.1,0-0.2,0
				c-0.1,0-0.1-0.1-0.2-0.1c-0.1-0.2-0.3-0.4-0.4-0.6c-0.2-0.8-0.9-0.5-1.5-0.6c-0.1-0.1-0.3-0.2-0.4-0.3l0,0
				c-0.2-0.1-0.4-0.2-0.6-0.2c0,0-0.1,0-0.1,0c0.1-0.2,0.3-0.4,0.5-0.7c-0.2-0.3-0.3-0.5-0.9-0.6c-0.5-0.1-1.1-0.6-1.5-1
				c-0.4-0.3-0.8-0.8-1.1-1.2c-0.1-0.2-0.1-0.4-0.2-0.7c-0.1,0-0.3,0.1-0.4,0.1c-0.4,0-0.7,0-0.6-0.6c0.1-0.5-0.1-1-0.1-1.5
				c-0.2-0.1-0.4-0.1-0.5-0.2C9.3,9.8,9.2,9.6,9.1,9.4c0-0.1,0.3-0.2,0.5-0.3c0.3-0.1,0.8-0.3,0.7-0.4c-0.1-0.4,0.1-1-0.6-1.2
				c-0.4-0.1-0.7-0.6-0.9-1C8.5,5.9,8.2,5.3,8,4.8C7.8,4.3,8,4.2,8.4,4.4C8.9,4.7,9.1,4.5,9.1,4C9,3,9.4,2.3,10.1,1.6
				C9.9,0.9,10.9,1,11,0.5c0,0,0.1,0,0.1,0c0.2,0,0.4,0.1,0.6,0.1C11.7,0.6,11.7,0.6,11.8,0.6z"/>
			<path class="st2" d="M8,36.1c-0.7,0.2-1.1-0.3-1.4-1c-0.1,0.1-0.1,0.1-0.2,0.2c0.1,0.3,0.1,0.7,0.2,1c0,0.2-0.1,0.5-0.2,0.5
				c-0.1,0.1-0.4,0-0.6-0.1c-0.9-0.5-0.5-1.1-0.2-1.9c-1-0.3-0.6-1-0.4-1.7c-0.8-0.4-1.3,1.1-2.1,0.5c1-0.9,1.1-0.9,0.6-2.2
				c-0.2-0.5-0.4-1.2-1.4-1.3c-0.5,0-0.9-0.7-1.3-1.2c-0.2-0.3-0.3-0.7-0.4-1.1c-0.4-0.8-0.4-0.8-1.3-0.5c0.1-0.2,0.1-0.4,0.2-0.5
				c0.4-0.4,0.1-0.7-0.2-0.8c-0.9-0.2-0.7-0.8-0.5-1.3C-1,24.3-1,24-1.5,23.7c-0.1,0-0.2-0.2-0.2-0.3C-2,22-2.3,20.6-2.4,19.2
				c-0.1-0.8,0.3-1.7,0.4-2.5c0.1-0.5,0.1-0.9,0.1-1.4c0-0.8,0-1.6,0.2-2.4c0.1-0.6,0.3-1.3,0.7-1.8c0.2-0.3,0.8-0.2,1.2-0.3
				c-0.1,0.4-0.3,0.9-0.4,1.3c-0.1,0.1-0.3,0.3-0.4,0.4c-0.4,0.2-0.6,1.3-0.4,1.9c0,0.2-0.1,0.4-0.1,0.6c0,1.8,0,3.5,0,5.3
				c0,0.2,0,0.4,0,0.5c0,0.2-0.1,0.4-0.1,0.5c0,0.6,0.6,1,0.3,1.7c0,0,0.2,0.2,0.3,0.3c0.2,0.1,0.4,0.3,0.6,0.4c0,0.3,0,0.6,0,0.8
				c0.1,0.4,0.2,0.8,0.4,1.2c0.1,0.2,0.5,0.4,0.8,0.5c0,0,0,0.1,0,0.1c0,0.1-0.1,0.3-0.1,0.4l0,0c0,0.1,0,0.1,0,0.2
				c0.5,0.7,1,1.4,1.5,2.1c0.3,0.6,0.8,0.3,1.2,0.4c0,0,0,0.1,0,0.1c0,0.1,0.1,0.2,0.1,0.3c0,0,0,0,0,0c0.1,0.3-0.2,0.8,0.4,1
				c0,0,0,0.1,0,0.1c0,0.1,0,0.2,0,0.3c0,0,0,0.1,0,0.1c0.1,0.2,0.2,0.3,0.3,0.5c0.1,0,0.2,0,0.2,0c0.2,0.1,0.4,0.2,0.7,0.3
				c0.1,0.4,0.2,0.8,0.3,1.2c0.1,0.1,0.2,0.2,0.3,0.3c0.5,0.4,1,0.7,1.5,1.1c0.2,0.1,0.3,0.4,0.4,0.6C7.9,35.6,7.9,35.9,8,36.1z"/>
			<path class="st2" d="M25,38.3c-0.2,0.1-0.5,0.2-0.7,0.3c-0.2,0.1-0.4,0.3-0.4,0.3c0.2,0.8-0.5,0.8-0.8,0.8c-1.8,0.1-3.7,0-5.5,0
				c-1.2,0-2.5,0-3.7,0c-0.2,0-0.4-0.2-0.7-0.3c0.1-0.2,0.2-0.4,0.4-0.6c0.1-0.2,0.3-0.4,0.4-0.6c0,0,0-0.1,0-0.1
				c0.1,0,0.3,0,0.3,0.1c0.4,0.8,1.1,0.6,1.7,0.4c0.1,0,0.1-0.1,0.2-0.1c0.2-0.1,0.3-0.2,0.5-0.3c0.2,0.1,0.5,0.1,0.6,0.2
				c0.3,0.4,0.7,0.4,1.2,0.4c0.4,0,0.7,0,1.1,0c0.7,0,1.4,0.1,2.2,0.1c0.7,0,1.3-0.2,1.6-0.8C23.9,38.2,24.4,38.2,25,38.3z"/>
			<path class="st2" d="M0.1,10.3C-0.2,10-0.2,9.7,0,9.4c0.5-0.8,1.2-1.5,1.3-2.6c0-0.2,0.3-0.3,0.5-0.4C2.5,6,3.1,5.5,3.5,4.8
				C3.7,4.5,3.9,4.2,4.2,4c0.4-0.3,0.8-0.6,0.6-1.3c0,0,0-0.2,0.1-0.2C5.4,2.2,5.9,2,6.4,1.7c0.2-0.1,0.4-0.3,0.4-0.4
				c0.1-0.4,0-0.9,0.6-1.1C8.1,0,8.6,0,9.1,0.6c-0.1,0-0.2,0-0.2,0c-0.2,0-0.5-0.2-0.6-0.1C7.6,1.2,7.1,1.8,6.8,2.6
				c-0.9,0.3-1.5,1-1.9,1.8c-0.5,0.5-1,1-1.5,1.5C3.2,6,3,6.2,2.7,6.3C2.4,6.5,2,6.7,2.2,7.3c0,0.1,0,0.2,0,0.3
				C2,7.7,1.8,7.8,1.7,7.9C1.5,8.3,1.4,8.8,1.3,9.2C1.1,9.3,1,9.4,0.8,9.5C0.1,9.3,0.4,10,0.1,10.3z"/>
			<path class="st3" d="M8,36.1c0-0.2,0-0.4-0.1-0.6c-0.1-0.2-0.2-0.4-0.4-0.6c-0.5-0.4-1-0.7-1.5-1.1c0-0.1,0-0.2,0-0.3
				c0.9,0,1.8,0,2.7,0c0.1,0,0.3,0.1,0.4,0.1c0.1,0,0.2,0,0.3-0.1c0.1,0,0.3,0,0.4,0c0.1,0.2,0.1,0.3,0.2,0.5
				c-0.1,0.2-0.3,0.4-0.5,0.6c0.3,0.1,0.6,0.1,0.8,0.1c0.6,0.3,0.7,0.9,1.1,1.4c-0.4,0.1-0.7,0.2-1.1,0.3c-0.8-0.1-1.5-0.2-2.3-0.3
				C8,36.2,8,36.1,8,36.1z"/>
			<path class="st6" d="M25,38.3c-0.5-0.1-1.1-0.1-1.6-0.2c-0.3,0.1-0.7,0-0.8,0.2c-0.4,0.4-0.8,0.4-1.3,0.4c-0.6,0-1.1,0.1-1.7,0.1
				c-0.4,0-0.7,0-1.1,0c-0.5,0-0.9,0-1.2-0.4c-0.1-0.1-0.4-0.1-0.6-0.2c-0.2,0-0.3-0.1-0.5-0.1c0.1-0.1,0.3-0.3,0.4-0.3
				c0.6,0,1.2,0.1,1.8,0.2c0.7,0,1.5,0,2.2,0c0.7,0.1,1.4,0.3,2-0.1c1-0.4,2.1-0.7,3.1-1.1c0.2,0.3,0.4,0.5,0.5,0.8
				c-0.4,0.2-0.7,0.5-1.1,0.7C25.1,38.3,25.1,38.3,25,38.3z"/>
			<path class="st2" d="M8,36.2c0.8,0.1,1.5,0.2,2.3,0.3c0,0.5,0.3,0.8,0.8,0.8c0.1,0.1,0.1,0.2,0.2,0.2c-0.1,0.4-0.4,0.4-0.7,0.3
				c-0.8-0.2-1.7-0.4-2.5-0.6c-0.1,0-0.4-0.2-0.4-0.2C7.7,36.8,7.9,36.5,8,36.2z"/>
			<path class="st7" d="M11.3,37.5c-0.1-0.1-0.1-0.2-0.2-0.2c0.1-0.2,0.2-0.4,0.3-0.7c0.4,0,0.7,0,1.1,0c0.1,0.1,0.3,0.1,0.4,0.2
				c-0.1,0.1-0.2,0.3-0.4,0.5c0.7,0.1,1.2,0.1,1.7,0.1c0,0,0,0.1,0,0.1c-0.1,0.2-0.2,0.4-0.3,0.6c0,0,0,0.1,0,0.1
				c-0.2,0-0.4,0-0.7,0c-0.4-0.7-1.1-1-1.5-0.6c-0.1,0-0.2,0-0.3,0C11.4,37.6,11.3,37.6,11.3,37.5z"/>
			<path class="st8" d="M0.1,10.3c0.3-0.2-0.1-1,0.7-0.8c-0.1,0.6-0.3,1.2-0.4,1.8c-0.1,0.2-0.3,0.4-0.4,0.6
				c-0.1,0.1-0.2,0.2-0.3,0.3c0.1-0.4,0.3-0.9,0.4-1.3C0.1,10.6,0.1,10.5,0.1,10.3z"/>
			<path class="st2" d="M27.1,40c0-0.1-0.1-0.2,0-0.3c0.2-0.3,0.4-0.7,0.6-0.9c0.1-0.1,0.4-0.2,0.7-0.2c0.1,0,0.2,0.2,0.2,0.4
				c-0.2,0.1-0.3,0.2-0.5,0.3C27.8,39.4,27.5,39.7,27.1,40z"/>
			<path class="st7" d="M11.8,0.6c0,0-0.1,0-0.1,0c-0.1-0.2-0.2-0.4-0.3-0.5c0.5,0,1,0,1.5,0C13,0,13,0,13.1,0
				C13,0.9,12.3,0.5,11.8,0.6z"/>
			<path class="st9" d="M11.8,37.6c0.4-0.4,1.1-0.1,1.5,0.6c-0.2,0-0.4,0-0.7,0C12.3,38,12.1,37.8,11.8,37.6z"/>
			<path class="st9" d="M8.8,0.6c0.1,0,0.2,0,0.2,0c0,0,0.1,0,0.1,0c0.2,0,0.4,0.1,0.5,0.1c0,0.2,0,0.3,0,0.5c-0.2,0-0.4,0-0.5,0
				c-0.1,0-0.1,0-0.2,0C8.8,1.1,8.5,1,8.8,0.6z"/>
			<path class="st2" d="M24.1,39.9c0.5,0,0.9,0,1.4,0C25.1,40.4,24.6,40.4,24.1,39.9z"/>
			<path class="st2" d="M16.8,41c0.3-0.4,0.6-0.7,1.1-0.6c0,0.1,0.1,0.1,0.1,0.2c-0.4,0.2-0.7,0.4-1.1,0.6
				C16.9,41.2,16.9,41.1,16.8,41z"/>
			<path class="st8" d="M14.2-0.5c-0.1,0-0.3,0-0.4,0c0,0,0-0.1,0-0.1c0.1,0,0.2,0,0.3,0c1.2,0,2.3,0,3.5,0c0.2,0,0.4,0.1,0.6,0.1
				C16.9-0.5,15.6-0.5,14.2-0.5z"/>
			<path class="st2" d="M21.9,40.4c0.4,0,0.8,0,1.2,0.1c0,0.1,0,0.2,0,0.2c-0.4,0-0.8,0-1.2,0C21.9,40.6,21.9,40.5,21.9,40.4z"/>
			<path class="st2" d="M11.8,37.6c0.3,0.2,0.5,0.4,0.8,0.6c-0.1,0.4-0.4,0.3-0.6,0.1c-0.2-0.2-0.3-0.5-0.5-0.8
				C11.6,37.6,11.7,37.6,11.8,37.6z"/>
			<path class="st2" d="M14.8,41.1c-0.3-0.1-0.6-0.3-0.9-0.4c0.1-0.1,0.1-0.2,0.2-0.3c0.3,0.2,0.6,0.3,0.8,0.5
				C14.9,40.9,14.8,41,14.8,41.1z"/>
			<path class="st2" d="M32.7,36.7c0.3-0.8,0.4-0.9,0.9-0.4C33.3,36.5,33,36.6,32.7,36.7z"/>
			<path class="st2" d="M9.8,0.7c-0.2,0-0.4-0.1-0.5-0.1c0.3-0.7,0.7-0.4,1.1-0.1C10.1,0.6,9.9,0.6,9.8,0.7z"/>
			<path class="st2" d="M-2.9,13.6c0.1,0.2,0.1,0.4,0.2,0.6c0,0-0.2,0.1-0.3,0.1C-3,14.2-3.1,14-3.2,13.8C-3.1,13.7-3,13.7-2.9,13.6
				z"/>
			<path class="st2" d="M38.4,30.4c0-0.2,0-0.5,0-0.7c0.1,0,0.2,0,0.3,0c0,0.2,0,0.5-0.1,0.7C38.6,30.4,38.5,30.4,38.4,30.4z"/>
			<path class="st2" d="M34,36c0-0.2,0.1-0.4,0.2-0.5c0,0,0.2,0,0.3,0.1c0,0.2-0.1,0.4-0.1,0.5C34.1,36.1,34.1,36,34,36z"/>
			<path class="st2" d="M-0.1,8.9c-0.2-0.1-0.3-0.1-0.5-0.2c0-0.1,0.1-0.2,0.1-0.3C-0.4,8.5-0.2,8.6,0,8.7C-0.1,8.8-0.1,8.8-0.1,8.9
				z"/>
			<path class="st2" d="M16.4,40.7c-0.2,0-0.4,0-0.6,0c0-0.1,0-0.1,0-0.2c0.2,0,0.4,0,0.6,0C16.3,40.5,16.3,40.6,16.4,40.7z"/>
			<path class="st2" d="M3.7,3.4c-0.2,0-0.4-0.1-0.5-0.1c0-0.1,0-0.2,0-0.2c0.2,0,0.4,0.1,0.5,0.1C3.7,3.3,3.7,3.4,3.7,3.4z"/>
			<path class="st2" d="M13.2,40.5c-0.1,0-0.3-0.1-0.4-0.1c0,0,0-0.1,0-0.2c0.1,0,0.3,0.1,0.4,0.1C13.2,40.4,13.2,40.5,13.2,40.5z"
				/>
			<path class="st2" d="M-3,22.1c-0.1,0.1-0.1,0.3-0.2,0.4c-0.1,0-0.1-0.1-0.2-0.1c0.1-0.1,0.1-0.3,0.2-0.4C-3.1,22-3.1,22-3,22.1z"
				/>
			<path class="st9" d="M11.4,0.1c0.1,0.2,0.2,0.4,0.3,0.5c-0.2,0-0.4-0.1-0.6-0.1C11.2,0.3,11.3,0.2,11.4,0.1z"/>
			<path class="st2" d="M20.6,40.7c-0.1,0.1-0.1,0.1-0.1,0.1c-0.1,0-0.1,0-0.2-0.1c0-0.1,0.1-0.1,0.1-0.2
				C20.4,40.6,20.5,40.6,20.6,40.7z"/>
			<path class="st2" d="M13.8-0.6c0,0,0,0.1,0,0.1c-0.1,0-0.3,0-0.4,0C13.6-0.5,13.7-0.6,13.8-0.6z"/>
			<path class="st2" d="M13.1,0C13,0,13,0,12.9,0C13,0,13.2-0.1,13.3-0.2C13.2-0.1,13.2,0,13.1,0z"/>
			<path class="st2" d="M36.3,33.5c0,0,0.1,0,0.1,0.1c0,0,0,0.1,0,0.1c0,0-0.1,0-0.1-0.1C36.3,33.6,36.3,33.6,36.3,33.5z"/>
			<path class="st2" d="M32.8,36.6c-0.1,0.1-0.2,0.2-0.2,0.2c0-0.1,0-0.1,0-0.2C32.6,36.6,32.7,36.6,32.8,36.6z"/>
			<path class="st2" d="M13.4-0.3c0,0-0.1,0.1-0.1,0.1C13.3-0.2,13.4-0.3,13.4-0.3z"/>
			<path class="st10" d="M26.3,37.5c-0.2-0.3-0.4-0.5-0.5-0.8c0.1-0.2,0.2-0.5,0.4-0.7c0.3-0.2,0.6-0.4,0.9-0.5
				c0.4-0.2,0.6-0.4,0.4-0.8c-0.2-0.4-0.4-0.7-0.9-0.5c-0.1,0.1-0.3,0-0.4,0c-0.3-0.5-0.6-0.8-0.7-1.2c0-0.6-0.4-0.8-0.9-1.1
				c-0.4-0.2-0.7-0.7-1.3-0.4c-0.1,0.1-0.3-0.1-0.5-0.2c0.1-0.2,0.1-0.3,0.2-0.5c0.1-0.1,0.3-0.2,0.5-0.3c-0.6-0.4-1.2-1-1.8-1.2
				c-1-0.2-1.1-1.2-1.7-1.7c-0.4-0.4-0.6-1-0.9-1.4c-0.2-0.2-0.7-0.2-0.9-0.2c-0.6,0.2-0.8,0.1-0.9-0.6c-0.1-0.3-0.2-0.6-0.4-0.8
				c-0.4-0.5-1.1-0.9-1.4-1.5c-0.4-0.9-1.4-0.5-1.8-1.2c0,0-0.2,0-0.3,0c-0.4,0.3-1,0.4-1.2,0.8c-0.4,0.7-0.9,0.7-1.4,0.3
				c0-0.1,0.1-0.2,0.1-0.3c0.3-0.1,0.6-0.1,0.9-0.2c0.8-0.5,1.1-1.4,2.1-1.7c0,0,0.1-0.2,0.1-0.2c0-0.1,0-0.1,0-0.2
				c0.1-0.1,0.1-0.2,0.2-0.2c0.2-0.1,0.4-0.2,0.5-0.3c0.1,0,0.2,0,0.2,0c0.1,0.2,0.2,0.4,0.4,0.5c0.3,0.1,0.7,0.4,0.9,0.3
				c0.4-0.3,0.7-0.7,1-1.1c0.2,0,0.4,0,0.7,0c0,0,0.1,0,0.1,0c0.5,0.2,1,0.4,1.5,0.7c0,0,0.1,0,0.1,0c0,0.1,0,0.2,0,0.3
				c-0.2,0.5-0.1,0.9,0.5,1c0.3,0.1,0.5,0.5,0.7,0.8c0,0.1-0.2,0.3-0.4,0.4c-0.2,0.1-0.4,0.3-0.5,0.4c0.2,0.1,0.3,0.3,0.5,0.4
				c0.4,0.1,0.7,0.2,0.6,0.7c-0.1,0.6,0.2,0.8,0.6,1.1c0.5,0.3,1,0.7,1.5,1.1c-0.2,0.3-0.3,0.5-0.5,0.6c0.7,0.9,0.7,0.9,1.5,0.4
				c0.2-0.1,0.5-0.1,0.7-0.1c0.1,0,0,0.4,0.1,0.6c0.1,0.3,0.2,0.6,0.4,0.8c0.2,0.3,0.5,0.5,0.8,0.7c0.3,0.3,0.4,0.8,1.1,0.5
				c0.1,0,0.3,0.2,0.3,0.3c0.2,0.3,0.5,0.4,0.9,0.3c0.2,0,0.4,0.1,0.6,0.3c0.2,0.2,0.4,0.6,0.6,0.8c0.4,0.4,0.9,0.7,0.5,1.4
				c-0.2,0.4-0.3,0.7-0.4,1.1c-0.1,0.4-0.1,0.8-0.7,0.8c-0.1,0-0.3,0.1-0.4,0.3c-0.3,0.4-0.5,0.9-0.7,1.3c-0.3,0.1-0.7-0.2-0.7,0.4
				C27,37.4,26.7,37.5,26.3,37.5z"/>
			<path class="st11" d="M19.7,20.4c0,0-0.1,0-0.1,0c-0.1-0.2-0.2-0.4-0.3-0.5c0.2-0.1,0.4-0.3,0.5-0.4c0,0,0.1,0,0.1,0
				c0.1,0,0.2,0.1,0.3,0.1c0,0,0,0.1,0,0.1c0.1,0.1,0.3,0.2,0.4,0.3c0.3,0,0.6,0.1,0.9,0.1c0.2,0.1,0.3,0.1,0.5,0.2
				c0,0,0.1,0,0.1,0.1c0.1,0,0.2,0,0.3,0c0,0,0,0.1,0,0.1c0.2,0.7,0.8,0.7,1.4,0.7c0.5,0.1,1.1,0.5,1.5-0.1c0.4,0,0.9,0,1.3,0
				c0,0.1,0,0.2,0,0.3c0.1,0.5,0.5,0.8,0.9,0.6c0.7-0.4,1.4-0.2,2.1-0.1c0.6,0.1,0.9,0.3,1.1,0.8c0.2,0.4,0.6,1,1,1
				c0.7,0,1,0.4,1.2,0.8c0.2,0.4,0.3,0.8,0.4,1.2c0.5,0.2,1,0.6,1.5,1c0.4,0.3,0.7,0.5,0.4,1.1c-0.1,0.1,0.1,0.4,0.1,0.6
				c0,0.7,0.2,1.4,0,2c-0.2,0.6-0.4,1.2-0.4,1.9c-0.1,0.1-0.2,0.1-0.3,0.2c-0.3,0.2-1.2-0.2-0.8,0.8c0.1,0.2-1,1.1-1.3,1.1
				c-0.2,0-0.3,0.1-0.5,0.1c-0.1,0-0.2-0.1-0.3-0.1c0.1-0.5,0.3-1,0.4-1.5c0.1-0.2,0.3-0.5,0.3-0.5c0.7,0.1,0.6-0.3,0.6-0.7
				c0-0.2,0-0.5,0-0.7c0-0.2,0-0.3,0-0.7c-0.4,0.5-0.7,0.8-0.9,1.1c-0.3,0.4-0.5,0.3-0.6-0.1c-0.1-0.3-0.3-0.5-0.5-0.7
				c-0.2-0.3-0.3-0.6-0.5-0.9c-0.1-0.2-0.2-0.5-0.3-0.5c-0.6,0-0.7-0.4-0.7-0.8c-0.1-0.5-0.3-0.7-0.7-0.7c-0.2,0-0.4-0.3-0.5-0.5
				c-0.2-0.4-0.4-1-0.7-1.1c-0.6-0.1-0.8-0.4-1-0.9c-0.1-0.2-0.3-0.4-0.5-0.6c-0.5-0.4-1-0.4-1.4,0.1c-0.1,0.1-0.2,0.2-0.3,0.1
				c-0.1,0-0.2-0.2-0.2-0.3c0-0.7,0.1-1.3,0.1-1.9c-0.3-0.2-0.6-0.4-1-0.6c-0.4-0.2-0.8-0.3-1.2-0.5c-0.2-0.1-0.4-0.1-0.6-0.1
				C20.8,21,20.2,20.7,19.7,20.4z M31,30.1c0.1,0.1,0.2,0.1,0.3,0.2c0.1-0.2,0.3-0.4,0.4-0.7c-0.1,0-0.2-0.1-0.3-0.1
				C31.3,29.6,31.2,29.9,31,30.1z M33.1,26.1c-0.1,0-0.2,0-0.3,0c0,0.2,0,0.4,0,0.6c0.1,0,0.2,0,0.3,0
				C33.1,26.5,33.1,26.3,33.1,26.1z"/>
			<path class="st12" d="M24.3,0.1c0.1,0,0.2,0.1,0.3,0.1c0,0.5,0.1,0.9,0.1,1.5c0.2-0.1,0.5-0.1,0.7-0.2c0,0,0.1,0,0.1,0.1
				c0.1,0.2,0.2,0.4,0.3,0.5c0,0.2,0,0.4,0,0.6c0.1,0.5,0.6,0.8,0.9,0.5c0.1,0,0.2,0,0.3,0c0.2,0.6,0.1,1.2,0.7,1.6
				c0,0,0.1,0.1,0.1,0.1c0,0,0,0,0,0c-0.2,0.6-0.1,1.2,0.4,1.6c0.1,0.3,0.2,0.5,0.3,0.8c0,0.5,0,0.9,0,1.4c0,0.6-0.1,1.2-0.1,1.8
				c0,0.2,0,0.4,0,0.5c-0.5,0.3-0.7,0.7-0.4,1.2c-0.1,0.4-0.1,0.8-0.2,1.2c0,0-0.1,0-0.1,0c-0.3,0.2-0.5,0.4-0.8,0.5
				c-0.2,0.2-0.5,0.5-0.7,0.7c-0.1,0-0.2,0.1-0.3,0.1c-0.6,0-1.2,0-1.7,0.5c-0.3,0.3-0.5,0.1-0.5-0.2c0.1-0.2,0.3-0.4,0.4-0.5
				c0-0.4-0.2-0.9-0.1-1.3c0.1-0.6-0.1-1-0.7-1.2c0.1-0.1,0.2-0.1,0.2-0.1c0.7-0.2,0.7-0.3,0.3-0.9c-0.1-0.2-0.2-0.4-0.2-0.6
				c0-0.5-0.3-0.7-0.7-0.5c-0.3,0.1-0.5,0.1-0.8,0.2c0-0.1,0-0.1,0-0.2c0.3-0.4,0.7-0.8,1.1-1.3c-0.5-0.1-0.8-0.2-1.2-0.3
				c0.2-0.3,0.3-0.5,0.5-0.8c0.1-0.2,0.4-0.4,0.4-0.5c-0.1-0.3-0.3-0.5-0.6-0.6c-0.2-0.1-0.5-0.2-0.9-0.2c0.3-0.3,0.5-0.5,0.7-0.7
				c-0.2-0.9-1-0.3-1.4-0.6c0.1-0.3,0.3-0.6,0.4-0.8c0.3,0,0.6,0,0.9,0c0.2,0,0.5-0.2,0.7-0.3c-0.1-0.2-0.2-0.4-0.3-0.5
				c-0.2-0.3-0.3-0.5,0.2-0.7c0.2,0,0.4-0.4,0.3-0.5c-0.3-0.7,0-0.9,0.5-1.1c0.3-0.1,0.5-0.3,0.7-0.5C24,0.3,24.2,0.2,24.3,0.1z"/>
			<path class="st13" d="M39.2,21.1c0,0.3,0,0.6,0,0.8c0,0,0,0.1,0,0.1c0,0.4,0,0.7,0,1.1c0,0,0,0.1,0,0.1c-0.2,0.1-0.4,0.3-0.6,0.4
				c0-0.4-0.1-0.8-0.1-1.1c-0.1-0.6-0.3-1.1-0.4-1.7c-0.1-0.6-0.1-1.3-1-1.5c0.3-0.2,0.5-0.4,0.7-0.5c0.1-0.1,0.1-0.4,0.1-0.5
				c-0.4-0.5-0.8-1-1.3-1.3c-0.4-0.3-0.7-0.4-0.7-1c0-0.2-0.3-0.3-0.4-0.5c-0.1,0-0.1,0-0.2,0c0.1,1.1-0.5,1.2-1.3,1.2
				c-0.2,0-0.5,0.3-0.7,0.5c-0.4,0.4-0.7,0.7-1.1,1.1c0-0.1,0-0.2,0-0.3c0.6-0.9,1.1-1.7,1.7-2.6c0-0.1,0.1-0.1,0.1-0.2l0-0.1
				c0.2-0.2,0.5-0.3,0.5-0.5c0.1-0.6,0.1-1.2,0.1-1.7c0-0.2,0-0.4,0-0.5c0.1-0.2,0.1-0.4,0.2-0.5c0-0.1-0.1-0.2-0.1-0.3
				c0-0.2-0.1-0.3-0.1-0.5c-0.1-0.3-0.2-0.7-0.2-1c0,0,0,0,0,0c0,0,0,0,0,0c0,0,0-0.1,0-0.1c0,0-0.1,0-0.1,0c0,0-0.1,0-0.1,0
				c0,0,0-0.1-0.1-0.1c0,0,0-0.1,0-0.1c0-0.1,0-0.3-0.1-0.4c0,0,0-0.1,0-0.1c-0.1-0.4-0.3-0.8-0.4-1.2c0,0,0-0.1,0-0.1
				c0-0.4-0.1-0.7-0.1-1.1c0.3,0.1,0.7,0.1,0.8,0.3c0.6,0.7,1.2,1.5,1.7,2.2c0.2,0.3,0.4,0.7,0.5,1c-0.1,1.2,0.9,1.8,1.4,2.7
				c0.2,0.8,0.1,1.7,0.5,2.3c0.9,1.4,0.5,2.9,0.7,4.4c0,0.2,0,0.3,0,0.5c0,0.2,0,0.4,0,0.6C39.2,20.8,39.2,20.9,39.2,21.1z"/>
			<path class="st14" d="M34.7,32.1c0-0.7,0.1-1.2,0.4-1.9c0.2-0.6,0-1.3,0-2c0-0.2-0.2-0.4-0.1-0.6c0.4-0.6,0.1-0.8-0.4-1.1
				c-0.5-0.3-1-0.7-1.5-1c-0.1-0.4-0.2-0.8-0.4-1.2c-0.2-0.5-0.6-0.8-1.2-0.8c-0.3,0-0.7-0.6-1-1c-0.3-0.5-0.6-0.7-1.1-0.8
				c-0.7-0.1-1.4-0.3-2.1,0.1c-0.4,0.2-0.8-0.1-0.9-0.6c0.5,0,1,0,1.5,0c0.2,0,0.5-0.2,0.6-0.4c0.3-0.6,1.1-0.7,1.5-0.6
				c0.5,0.1,0.8,0.1,1.3,0c0.2-0.1,0.4,0,0.6,0.1c0.5,0.2,1,0.6,1.5,0.6c1,0,1.6,0.3,1.9,1.3c0.8-0.5,0.1-1.3,0.6-1.9
				c0.7,0.6-0.1,1.9,1.1,2.1c-0.1,0.6-0.4,0.9-1,0.5c-0.1-0.1-0.3,0.1-0.5,0.1c0.1,0.2,0.1,0.4,0.2,0.4c0.2,0.1,0.5,0.1,0.7,0.1
				c0.2,0.1,0.3,0.2,0.5,0.3c-0.5,0.5,0.1,0.8,0.2,1.2c0,0.1-0.1,0.3-0.2,0.5c-0.1,0.2-0.3,0.5-0.2,0.6c0.5,0.4,0.1,0.8,0,1.2
				c-0.1,0.2,0,0.4,0,0.6c-0.3,0.6-0.5,1.3-0.8,1.9C35.8,30.7,35.2,31.4,34.7,32.1z"/>
			<path class="st15" d="M23.9,0.5c-0.2,0.2-0.4,0.4-0.7,0.5c-0.6,0.2-0.9,0.4-0.5,1.1c0.1,0.1-0.2,0.5-0.3,0.5
				c-0.5,0.2-0.4,0.4-0.2,0.7c0.1,0.2,0.2,0.4,0.3,0.5c-0.2,0.1-0.5,0.3-0.7,0.3c-0.3,0.1-0.6,0-0.9,0c-1.3,0-2.6,0-3.9,0
				c-0.5-0.8-1-0.2-1.6,0c0-0.4,0-0.7,0-1.1c-0.2,0.1-0.4,0.1-0.5,0.2c-0.9-0.4-1.3-2.4-0.6-3.8c1.3,0,2.6,0,4,0c1,0,2.1,0,3.1,0
				c0.3,0.7,1,0.7,1.6,0.6C23.2,0.3,23.6,0.4,23.9,0.5z M15.8,1.3c0.3,0.2,0.4,0.4,0.6,0.5c0.1,0,0.4-0.3,0.3-0.3
				c-0.1-0.2-0.2-0.4-0.4-0.6C16.2,1,16.1,1.1,15.8,1.3z"/>
			<path class="st16" d="M37.1,28.1c0-0.2-0.1-0.4,0-0.6c0.1-0.4,0.5-0.8,0-1.2c-0.1,0,0.1-0.4,0.2-0.6c0.1-0.2,0.2-0.3,0.2-0.5
				c-0.2-0.4-0.7-0.7-0.2-1.2c-0.2-0.1-0.3-0.2-0.5-0.3c-0.2-0.1-0.5,0-0.7-0.1c-0.1-0.1-0.2-0.3-0.2-0.4c0.2,0,0.4-0.2,0.5-0.1
				c0.6,0.3,0.8,0.1,1-0.5c-1.3-0.2-0.4-1.5-1.1-2.1c-0.5,0.6,0.2,1.4-0.6,1.9c-0.3-1-0.9-1.3-1.9-1.3c-0.5,0-1-0.4-1.5-0.6
				c-0.2-0.1-0.4-0.2-0.6-0.1c-0.4,0.2-0.8,0.1-1.3,0c-0.4-0.1-1.2,0-1.5,0.6c-0.1,0.2-0.4,0.3-0.6,0.4c-0.5,0.1-1,0-1.5,0
				c0-0.1,0-0.2,0-0.3c0,0,0.1,0,0.1-0.1c0,0,0.1,0,0.1-0.1c1.4,0.1,2.3-0.9,3.4-1.5c0,0,0.1,0,0.1,0c0,0.1,0,0.1,0,0.2
				c0.2,0.1,0.4,0.3,0.5,0.2c0.2-0.2,0.3-0.4,0.5-0.6c0,0,0.1-0.1,0.1-0.1c0.2-0.2,0.4-0.4,0.6-0.7c0,0,0.1-0.1,0.1-0.1
				c0.4-0.4,0.7-0.8,1.1-1.1c0.2-0.2,0.4-0.5,0.7-0.5c0.8,0,1.3-0.1,1.3-1.2c0.1,0,0.1,0,0.2,0c0.2,0.2,0.4,0.3,0.4,0.5
				c0,0.5,0.3,0.7,0.7,1c0.5,0.4,0.9,0.8,1.3,1.3c0.1,0.1,0,0.4-0.1,0.5c-0.1,0.2-0.4,0.3-0.7,0.5c0.9,0.3,0.9,0.9,1,1.5
				c0.1,0.6,0.3,1.1,0.4,1.7c0.1,0.4,0.1,0.7,0.1,1.1c0,0.2-0.1,0.4-0.1,0.6c0.1,1.1-0.2,2.1-0.9,2.9C37.3,27.4,37.2,27.8,37.1,28.1
				z"/>
			<path class="st17" d="M31.5,4c0.3,0.2,0.6,0.5,0.9,0.7c0,0.2,0,0.4,0,0.5c-0.1,0.5,0.1,0.8,0.5,1.1c0.1,0,0.1,0,0.2,0
				c0.1,0.1,0.1,0.1,0.2,0.2c0,0.1-0.1,0.3-0.1,0.4c-0.1,0-0.2,0.1-0.3,0.1c-0.5,0-1.1,0-1.6,0c0.1-0.3,0.2-0.6,0.3-0.9
				c0.3-0.3,0.1-0.5-0.2-0.5c-0.3,0-0.6,0-0.9,0c-0.2-0.2-0.4-0.5-0.6-0.6c-0.4-0.2-0.8-0.3-1.3-0.5c-0.1-0.2-0.1-0.4-0.2-0.7
				c0.4,0.3,0.8,0.5,1.3,0.8c0.2,0.1,0.4,0.1,0.6,0.1c0.1,0,0.1-0.3,0.1-0.5c0-0.2,0-0.4,0-0.6C30.8,3.9,31.1,4,31.5,4z"/>
			<path class="st3" d="M27.4,0.6c0.1,0,0.2,0,0.3,0c0,0.2,0,0.4,0,0.7c-0.4,0.2-0.7,0.4-1.1,0.5c-0.3-0.1-0.6-0.2-0.8-0.3
				c0-0.2,0-0.4,0-0.5c0-0.2,0.1-0.3,0.1-0.5c0.1,0,0.2-0.1,0.3-0.1c0,0,0.1,0,0.1,0c0.2,0,0.5,0.1,0.7,0.1
				C27.1,0.6,27.3,0.6,27.4,0.6z"/>
			<path class="st18" d="M28.4,0.6c0.1,0.2,0.3,0.3,0.3,0.5c0,0.4,0.1,0.6,0.6,0.6c0.7-0.1,1.2,0.2,1.5,0.8c0,0.1-0.1,0.3-0.1,0.4
				c-0.4-0.2-0.7-0.3-1.1-0.5c-0.2,0-0.5,0-0.7,0c-0.1-0.1-0.2-0.3-0.3-0.4C28.4,1.5,28.4,1.1,28.4,0.6z"/>
			<path class="st1" d="M26.3,0.5c0,0-0.1,0-0.1,0c0.1-0.8,0.7-1.1,1.9-0.8c-0.2,0.3-0.5,0.7-0.7,1c-0.1,0-0.3,0-0.4,0
				C26.8,0.5,26.6,0.5,26.3,0.5z"/>
			<path class="st19" d="M38,12.8c-0.5-0.9-1.5-1.5-1.4-2.7C37.2,10.9,37.8,11.7,38,12.8z"/>
			<path class="st19" d="M31.6,34.7c-0.4,0.8-1.2,1.2-1.9,1.6c-0.2,0-0.4,0-0.6,0c0.3-0.2,0.5-0.5,0.8-0.7c0.3-0.2,0.6-0.4,0.9-0.6
				C31.1,34.9,31.4,34.8,31.6,34.7z"/>
			<path class="st9" d="M25.4,1.5c-0.3,0.1-0.5,0.2-0.7,0.2c0-0.6-0.1-1.1-0.1-1.5c0.2,0,0.4,0,0.7,0c0,0.1,0,0.2,0.1,0.3
				c0,0.3,0.1,0.5,0.1,0.8C25.4,1.4,25.4,1.4,25.4,1.5z"/>
			<path class="st20" d="M29.2,36.3c0.2,0,0.4,0,0.6,0c-0.4,0.6-1.6,1.1-2.3,0.9c-0.1-0.6,0.4-0.3,0.7-0.4
				C28.5,36.7,28.8,36.5,29.2,36.3z"/>
			<path class="st7" d="M23.9,0.5c-0.3-0.1-0.6-0.2-1-0.3c-0.1-0.2-0.3-0.4-0.4-0.6c0.7-0.1,1.3,0,1.8,0.5C24.2,0.2,24,0.3,23.9,0.5
				z"/>
			<path class="st9" d="M28.4,0.6c0,0.5,0.1,0.9,0.1,1.4c-0.3-0.1-0.5-0.2-0.8-0.3c0-0.1,0-0.3,0-0.4c0-0.2,0-0.4,0-0.7
				C27.9,0.6,28.1,0.6,28.4,0.6z"/>
			<path class="st5" d="M22.5-0.4c0.1,0.2,0.3,0.4,0.4,0.6c-0.6,0-1.3,0.1-1.6-0.6C21.7-0.5,22.1-0.5,22.5-0.4z"/>
			<path class="st6" d="M31.6,34.7c-0.3,0.1-0.5,0.2-0.8,0.4c-0.3,0.2-0.6,0.4-0.9,0.6c0-0.1,0.1-0.3,0.1-0.3c0.5-0.4,1-0.7,1.5-1.1
				c0.1,0,0.2,0.1,0.3,0.1C31.8,34.4,31.7,34.6,31.6,34.7z"/>
			<path class="st20" d="M30.5,2.9c0-0.1,0.1-0.3,0.1-0.4c0.3,0.5,0.5,1,0.8,1.5c-0.4,0-0.7-0.1-0.9-0.4c0-0.1,0-0.3,0-0.4
				C30.5,3.1,30.5,3,30.5,2.9z"/>
			<path class="st20" d="M25.4,1.3c0-0.3-0.1-0.5-0.1-0.8c0,0,0.1,0,0.1,0c0.2,0,0.3,0.1,0.5,0.1c0,0.2-0.1,0.3-0.1,0.5
				C25.6,1.1,25.5,1.2,25.4,1.3z"/>
			<path class="st1" d="M32.5,5.2c0-0.2,0-0.4,0-0.5c0.2,0.1,0.5,0.2,0.7,0.2c0,0.1,0,0.2-0.1,0.3C32.9,5.2,32.7,5.2,32.5,5.2z"/>
			<path class="st19" d="M33.2,7c0-0.1,0.1-0.3,0.1-0.4c0,0,0.1,0,0.1,0.1c0,0.4,0.1,0.7,0.1,1.1c-0.1-0.1-0.2-0.3-0.3-0.4
				C33.2,7.2,33.2,7.1,33.2,7z"/>
			<path class="st19" d="M39.2,20c0-0.2,0-0.3,0-0.5C39.2,19.7,39.2,19.8,39.2,20z"/>
			<path class="st1" d="M29.8,1.3c-0.1,0.1-0.1,0.1-0.2,0.1c0,0-0.1-0.1-0.1-0.1c0,0,0.1-0.1,0.1-0.1C29.8,1.2,29.8,1.3,29.8,1.3z"
				/>
			<path class="st19" d="M39.2,21.1c0-0.2,0-0.4,0-0.5C39.2,20.8,39.2,20.9,39.2,21.1z"/>
			<path class="st18" d="M25.4,0.5c0,0-0.1,0-0.1,0c0-0.1,0-0.2-0.1-0.3C25.3,0.3,25.3,0.4,25.4,0.5z"/>
			<path class="st8" d="M33.1,6.4c-0.1,0-0.1,0-0.2,0C33,6.3,33.1,6.4,33.1,6.4z"/>
			<path class="st19" d="M39.1,23.3c0,0,0-0.1,0-0.1C39.1,23.2,39.1,23.2,39.1,23.3C39.2,23.3,39.1,23.3,39.1,23.3z"/>
			<path class="st19" d="M39.1,22.1c0,0,0-0.1,0-0.1C39.2,22,39.2,22,39.1,22.1C39.2,22.1,39.1,22.1,39.1,22.1z"/>
			<path class="st7" d="M3.4,5.9c0.5-0.5,1-1,1.5-1.5c0.2,0,0.4,0,0.6,0c-0.7,0.5-0.7,1.4-1,2.1c-0.1,0.2,0.1,0.7,0.3,1
				C4.8,7.7,5,7.9,5.2,8.1C4.9,8.3,4.6,8.5,4.3,8.7c0,0.1,0,0.2,0,0.2c0.9,0.2,1,0.8,0.7,1.6c0,0.1,0,0.3,0,0.4
				c0.2,0.6,0.4,1.1,0.6,1.7c0.4-0.2,0.6-0.5,0.4-1C6,11,6,10.3,6,9.7c0-0.1,0.2-0.4,0.3-0.3c0.2,0,0.4,0.2,0.4,0.3
				c0.1,0.4,0.1,0.9,0,1.3c-0.1,0.5,0,0.7,0.4,0.8c0.4,0.1,0.4,0.4,0.2,0.6c-0.8,1-0.8,1.5,0.3,2.3c-0.1,0.1-0.3,0.2-0.3,0.4
				c0,0.1,0,0.5,0,0.5c0.8,0.1,1,0.8,1.5,1.3c-0.2,0.1-0.4,0.3-0.5,0.4c0,0-0.1,0.1-0.1,0.1c-0.1,0-0.3,0-0.4,0
				c-0.3,0.1-0.6,0.1-0.8,0.3c-0.3,0.2-0.6,0.4-0.9,0.6c-0.1-0.3,0.2-0.8-0.4-0.7c-0.3,0-0.6,0.4-0.8,0.6c-0.2,0.2-0.4,0.6-0.5,0.6
				c-0.3-0.1-0.8-0.3-0.9-0.6c-0.2-0.5-0.2-1.2-0.1-1.7c0.2-0.8-0.1-1.4-0.6-1.8c-1-0.6-0.7-1.5-0.7-2.3c0-0.6-0.1-0.9-0.5-1.1
				c-0.2-0.1-0.3-0.6-0.3-0.8C1.5,9.9,2,9.6,2.2,9.1c0.2-0.6,0.2-1.2,0.3-1.8C2.8,7,3.1,6.7,3.4,6.4C3.5,6.2,3.4,6,3.4,5.9z"/>
			<path class="st8" d="M15.5,16.9c0.5,0.1,1.2-0.1,1.5,0.6c0,0,0,0,0,0c-0.1,0-0.2,0.1-0.4,0.1c-0.5-0.1-1-0.2-1.5-0.3
				c-0.1,0-0.2-0.1-0.3-0.1c-0.1-0.1-0.2-0.3-0.3-0.3c-0.8,0-1.6,0-2.4,0.1c-0.7,0.1-1.5,0.2-2.2,0.2c0,0-0.1-0.1-0.1-0.1
				c0.3-0.5,0.8-0.6,1.3-0.6c0.3,0,0.7,0.2,0.8-0.3c0.8,0,1.7,0.1,2.5,0.1c0,0,0.1,0,0.1,0c0.2,0.1,0.4,0.2,0.6,0.2c0,0,0,0,0,0
				C15.2,16.8,15.3,16.8,15.5,16.9z"/>
			<path class="st20" d="M8.8,0.6C8.5,1,8.8,1.1,9,1.3c0,0,0,0.1,0,0.1C8.8,1.6,8.4,1.7,8.1,1.8C7.9,2,7.6,2.2,7.3,2.4
				C7.1,2.5,6.9,2.5,6.8,2.6c0.3-0.8,0.9-1.5,1.4-2.1C8.3,0.5,8.6,0.6,8.8,0.6z"/>
			<path class="st9" d="M6.8,2.6c0.2-0.1,0.4-0.2,0.5-0.3C7.5,2.8,7.3,3,7,3.2C6.4,3.6,5.9,4,5.4,4.4c-0.2,0-0.4,0-0.6,0
				C5.3,3.6,5.9,2.9,6.8,2.6z"/>
			<path class="st9" d="M11.8,16.3c-0.1,0.5-0.5,0.3-0.8,0.3c-0.5,0-1,0-1.3,0.6c-0.5,0-1,0-1.5,0c0.2-0.1,0.4-0.3,0.5-0.4
				c0.1,0,0.3,0,0.4,0c0.3-0.1,0.5-0.3,0.8-0.4C10.6,16.3,11.2,16.3,11.8,16.3z"/>
			<path class="st7" d="M7.9,14.7c0-0.1-0.2-0.3-0.1-0.4c0-0.1,0.2-0.3,0.3-0.3c0.1,0,0.3,0.2,0.3,0.3c0,0.1-0.1,0.2-0.2,0.3
				C8,14.6,8,14.6,7.9,14.7z"/>
			<path class="st7" d="M10,16.4c-0.3,0.1-0.5,0.3-0.8,0.4C9.5,16.6,9.7,16.5,10,16.4z"/>
			<path class="st7" d="M5.5,4.7c0.1,0.1,0.3,0.1,0.4,0.2c0,0,0,0.2-0.1,0.2C5.7,5,5.6,5,5.4,4.9C5.5,4.9,5.5,4.8,5.5,4.7z"/>
			<path class="st21" d="M9.1,1.4C9,1.4,9,1.4,9.1,1.4c0-0.1,0.1-0.1,0.1-0.1C9.2,1.3,9.1,1.4,9.1,1.4z"/>
			<path class="st22" d="M17,4.1c1.3,0,2.6,0,3.9,0c-0.1,0.3-0.3,0.5-0.4,0.8c0.4,0.3,1.3-0.4,1.4,0.6c-0.2,0.2-0.4,0.4-0.7,0.7
				c0.4,0.1,0.7,0.1,0.9,0.2c0.2,0.1,0.5,0.4,0.6,0.6c0,0.1-0.2,0.3-0.4,0.5c-0.2,0.2-0.3,0.5-0.5,0.8c0.4,0.1,0.7,0.2,1.2,0.3
				C22.7,9.2,22.4,9.6,22,10c0,0.1,0,0.1,0,0.2c0.3-0.1,0.6-0.1,0.8-0.2c0.5-0.2,0.7,0,0.7,0.5c0,0.2,0.1,0.4,0.2,0.6
				c0.4,0.6,0.4,0.6-0.3,0.9c-0.1,0-0.1,0.1-0.2,0.1c0.6,0.2,0.8,0.6,0.7,1.2c-0.1,0.4,0.1,0.9,0.1,1.3c-0.2-0.1-0.5-0.5-0.8-0.1
				c-0.2,0.3,0,0.6,0.3,0.6c0.1,0.3,0.2,0.5,0.5,0.2c0.5-0.5,1.1-0.5,1.7-0.5c-0.1,0.1-0.1,0.2-0.2,0.3c-0.2,0.4-0.5,0.8-0.7,1.2
				c-0.2,0.2-0.3,0.4-0.5,0.6c-0.2,0.1-0.4,0.1-0.6,0.2c-0.1,0-0.2,0-0.4,0c-0.4-0.3-0.8-0.5-1.2-0.8c-0.7,1-0.7,1-1.5,0.3
				c0,0-0.1,0-0.1,0l0,0c0-0.1,0-0.3,0-0.3c-0.4-0.7-0.9-1.3-1.3-2c-0.1-0.1-0.1-0.3-0.1-0.5c0.1-0.4,0.3-0.8,0.4-1.2
				c-0.8-0.5-1-0.5-2.2,0.6c0-0.4-0.2-0.7-0.1-0.8c0.2-0.2,0.6-0.4,0.9-0.4c0.4-0.1,0.9-0.1,1.3-0.2c0.2,0,0.3-0.1,0.5-0.1
				c-0.1-0.1-0.2-0.2-0.2-0.3c-0.1,0-0.2-0.1-0.3-0.1c-1.1,0.2-1.6-0.1-2.1-1.1c-0.1-0.3-0.4-0.5-0.6-0.8C16.6,9,16.5,8.7,17,8.5
				c0.1-0.1,0.4-0.3,0.3-0.4c-0.1-0.2-0.3-0.3-0.4-0.4c-0.4-0.1-0.5-0.2-0.4-0.6c0.2-0.4,0.3-0.9,0.4-1.3c0-0.1-0.1-0.3-0.2-0.4
				c-0.2-0.1-0.4-0.2-0.6-0.4C16.4,4.6,16.7,4.4,17,4.1z M21.1,14.9c-0.1,0-0.3,0-0.4,0c0,0.3,0,0.5,0.1,0.8c0,0,0.3,0,0.5,0
				C21.2,15.4,21.1,15.2,21.1,14.9z M21.7,8.7c0,0-0.1-0.1-0.1,0c0,0,0,0.1-0.1,0.1c0,0,0.1,0.1,0.1,0C21.6,8.8,21.6,8.8,21.7,8.7z"
				/>
			<path class="st22" d="M20.9,17.7c-0.3,0-0.6,0-1,0c0-0.1,0-0.1,0-0.2c-0.1-0.3-0.2-0.6-0.3-0.9c0.3,0,0.7,0,1,0c0,0,0,0,0,0
				C20.7,17,20.8,17.4,20.9,17.7z"/>
			<path class="st5" d="M16.6,13.1c0.1,0.4,0.2,0.7,0.3,1.1c-0.1,0.1-0.1,0.1-0.2,0.2c-0.3-0.1-0.8-0.2-0.8-0.3c0-0.3,0.2-0.7,0.3-1
				C16.3,13.1,16.5,13.1,16.6,13.1z"/>
			<path class="st5" d="M14.7,8.6c0.3,0,0.6-0.1,0.9-0.1c0,0.1,0,0.4,0,0.4C15.3,8.9,15,9,14.7,9C14.7,8.8,14.7,8.7,14.7,8.6z"/>
			<path class="st18" d="M20.6,18.4c0.1,0,0.3,0,0.4,0c0,0,0.1,0,0.1,0l0.1,0c0.1,0,0.3,0,0.4,0c0,0.2-0.1,0.4-0.1,0.5
				c-0.4,0.1-0.8,0.1-1.2,0.2c-0.1-0.1-0.3-0.1-0.4-0.2c-0.2,0-0.5,0-0.7,0c-0.8,0-1.6,0.1-2.4,0.2c-0.5-0.5-1.6-0.5-2.3,0
				c-1.3,0-2.6-0.1-3.8-0.1c0.3-0.2,0.3-0.4-0.1-0.6c-0.1-0.1-0.1-0.3-0.2-0.4c0.2,0,0.3,0,0.5,0c0.2,0,0.5-0.1,0.7,0.1
				c0.5,0.5,1.1,0.4,1.7,0.3c0.6,0,1.3-0.1,1.9-0.1c0.2,0,0.4,0,0.5,0.1c0.5,0.3,1,0.1,1.4-0.2c0.1,0,0.2,0,0.3,0c0,0,0.1,0.1,0.1,0
				c0.1,0,0.1,0.1,0.2,0.1c0.1,0,0.1,0,0.2,0c0.6,0,1.2,0,1.7,0C19.8,18.4,20.2,18.4,20.6,18.4z"/>
			<path class="st20" d="M21.4,18.9c0-0.2,0.1-0.4,0.1-0.5c0.5-0.3,0.9-0.6,1.5-0.4c0.3,0.2,0.5,0.3,0.8,0.5c0,0.2,0,0.4,0,0.5
				C23.1,18.9,22.3,18.9,21.4,18.9z"/>
			<path class="st4" d="M20.9,17.7c-0.1-0.4-0.2-0.7-0.3-1.1c0,0,0.1,0,0.1,0c0.9,0.6,0.9,0.6,1.5-0.3c0.4,0.2,0.8,0.5,1.2,0.8
				c0,0-0.1,0.1-0.1,0.1C22.5,17.4,21.7,17.6,20.9,17.7z"/>
			<path class="st8" d="M23.4,17.2c0,0,0.1-0.1,0.1-0.1c0.1,0,0.2,0,0.4,0c0,0.1,0,0.2,0.1,0.4c-0.1,0.1-0.1,0.2-0.2,0.4
				c-0.2,0-0.3,0-0.5,0C23.3,17.6,23.3,17.4,23.4,17.2z"/>
			<path class="st21" d="M23.2,17.9c0.2,0,0.3,0,0.5,0c0.1,0.1,0.1,0.3,0.2,0.4c0,0,0,0.1,0,0.1c-0.3-0.2-0.5-0.3-0.8-0.5
				C23.1,17.9,23.2,17.9,23.2,17.9z"/>
			<path class="st9" d="M20.6,18.4c-0.4,0-0.8,0-1.2,0C19.8,18.4,20.2,18.4,20.6,18.4z"/>
			<path class="st9" d="M17.3,18.2c0,0-0.1,0-0.1,0c-0.1-0.2-0.2-0.4-0.3-0.6c0,0,0,0,0,0C17.1,17.8,17.2,18,17.3,18.2z"/>
			<path class="st9" d="M15.5,16.9c-0.1-0.1-0.3-0.2-0.4-0.3C15.2,16.8,15.3,16.8,15.5,16.9z"/>
			<path class="st9" d="M15,16.7c-0.2-0.1-0.4-0.2-0.6-0.2C14.7,16.5,14.8,16.6,15,16.7z"/>
			<path class="st9" d="M21.1,18.4L21.1,18.4c-0.1,0-0.1,0-0.1,0C21.1,18.4,21.1,18.4,21.1,18.4z"/>
			<path class="st21" d="M17.7,18.4c-0.1,0-0.1,0-0.2,0C17.6,18.3,17.6,18.4,17.7,18.4z"/>
			<path class="st9" d="M-1.2,20.5c0-1.8,0-3.5,0-5.3c0-0.2,0.1-0.4,0.1-0.6c0.6-0.3,0.3-0.8,0.4-1.2c0.1,0,0.2,0,0.2,0
				c0.2,0.4,0.6,0.8,0.2,1.3c-0.3,0.4-0.4,0.8-0.2,1.2c0.2,0.6,0.3,1.2,0.5,1.9c-0.2,0.1-0.4,0.2-0.5,0.3c0,0.1,0,0.1,0,0.2
				c0.2,0.1,0.4,0.1,0.7,0.2c-0.2,1-0.4,1.9-0.5,2.9c0,0,0,0,0,0C-0.7,20.9-1,20.7-1.2,20.5z"/>
			<path class="st17" d="M3.6,29.7c0,0,0-0.1,0-0.1c0.1-0.2,0.3-0.4,0.4-0.5c1,0,2.1,0,3.1,0c0,0.4-0.1,0.8-0.1,1.1
				c-0.7,0-1.4,0-2,0.1C4.6,30.1,4.2,30,3.8,30c0,0,0,0,0,0C3.7,29.9,3.7,29.8,3.6,29.7z"/>
			<path class="st7" d="M5.4,32.3c-0.2-0.1-0.4-0.2-0.7-0.3c0-0.1-0.1-0.1-0.1-0.2c0-0.1,0-0.3-0.1-0.4C4.4,31.1,4.6,31,4.9,31
				c0.9,0,1.9,0,2.8,0c0,0.4-0.1,0.8-0.1,1.2c-0.2,0-0.4,0-0.5,0c-0.2,0-0.4,0-0.7,0C6,32.3,5.7,32.3,5.4,32.3z"/>
			<path class="st8" d="M7,32.3c0.2,0,0.4,0,0.5,0c0.1,0,0.2,0.1,0.3,0.1c0.3,0.1,0.6,0.3,0.9,0.4c0.2,0.1,0.4,0.2,0.6,0.3
				c0,0.2,0,0.3,0,0.5c-0.1,0-0.2,0-0.3,0.1c-0.1,0-0.3-0.1-0.4-0.1c-0.9,0-1.8,0-2.7,0c-0.1-0.1-0.1-0.2-0.2-0.4
				c0,0.2-0.1,0.3-0.1,0.4c-0.1-0.4-0.2-0.8-0.3-1.2c0.3,0,0.7,0,1,0C6.6,32.7,6.8,32.7,7,32.3z"/>
			<path class="st18" d="M7.7,31.1c-0.9,0-1.9,0-2.8,0c-0.3,0-0.5,0.1-0.4,0.4c-0.1,0-0.2,0-0.4,0c0,0,0-0.1,0-0.1
				c0-0.1,0-0.2,0-0.3c0,0,0-0.1,0-0.1c0.3-0.2,0.9,0,0.8-0.7c0.7,0,1.4,0,2-0.1c0.3,0,0.6-0.1,0.9-0.1c0,0.2,0,0.4,0,0.5
				c0.2,0.2,0.3,0.4,0.5,0.6c-0.1,0-0.2,0-0.3,0C8,31.1,7.9,31.1,7.7,31.1z"/>
			<path class="st18" d="M4.1,29c-0.1,0.2-0.3,0.4-0.4,0.5c-0.4-0.1-0.9,0.2-1.2-0.4c0.9-0.2,0.3-0.7,0.2-1.1c0-0.4,0-0.7,0-1.1
				c0.2,0,0.4,0.1,0.7,0.1c0,0.3,0.1,0.5,0.1,0.8C3.7,28.3,3.9,28.6,4.1,29z"/>
			<path class="st9" d="M-0.2,23.9c-0.2-0.1-0.4-0.3-0.6-0.4c0-0.1,0-0.2,0-0.3c0.1-0.2,0.4-0.4,0.4-0.6c0-0.5-0.1-1-0.1-1.4
				c0,0,0,0,0,0c0.2,0,0.4,0,0.5,0c0,0.8-0.1,1.4-0.1,2.1c0.1,0.6,0.3,1.1,0.5,1.7c-0.2-0.2-0.3-0.5-0.5-0.7
				C-0.1,24.1-0.1,24-0.2,23.9z"/>
			<path class="st23" d="M2.7,28.1c0,0.4,0.6,0.9-0.2,1.1c-0.5-0.7-1-1.4-1.5-2.1c0-0.1,0-0.1,0-0.2c0,0,0,0,0,0
				c0.1-0.1,0.1-0.2,0.2-0.2c0.2,0.2,0.5,0.3,0.5,0.5C1.7,27.9,2.1,28,2.7,28.1z"/>
			<path class="st23" d="M-0.4,21.1c0,0.5,0.1,1,0.1,1.4c0,0.2-0.2,0.4-0.4,0.6c0-0.5,0-0.9,0-1.4c-0.2-0.3-0.3-0.5-0.5-0.8
				c0-0.2,0-0.4,0-0.5C-1,20.7-0.7,20.9-0.4,21.1z"/>
			<path class="st8" d="M0,24.2c0.2,0.2,0.3,0.5,0.5,0.7c0.2,0.5,0.3,1,0.5,1.5c0,0-0.1,0-0.1,0c-0.3-0.2-0.6-0.3-0.8-0.5
				c-0.2-0.4-0.3-0.8-0.4-1.2C-0.1,24.5-0.1,24.4,0,24.2z"/>
			<path class="st23" d="M-0.4,13.2c-0.1,0-0.2,0-0.2,0c0-0.2,0-0.5,0-0.7c0.1-0.1,0.3-0.3,0.4-0.4c0.1-0.1,0.2-0.2,0.3-0.3
				c0.1-0.2,0.3-0.4,0.4-0.6c-0.1,0.3-0.1,0.6-0.2,0.9C0,12.5-0.2,12.9-0.4,13.2z"/>
			<path class="st20" d="M-0.7,12.6c0,0.2,0,0.5,0,0.7c-0.1,0.4,0.2,1-0.4,1.2C-1.3,13.8-1.1,12.8-0.7,12.6z"/>
			<path class="st20" d="M5,30.2c0.1,0.7-0.5,0.5-0.8,0.7c-0.6-0.1-0.3-0.6-0.4-1C4.2,30,4.6,30.1,5,30.2z"/>
			<path class="st20" d="M-0.7,21.8c0,0.5,0,0.9,0,1.4c0,0.1,0,0.2,0,0.3c-0.1-0.1-0.4-0.2-0.3-0.3c0.3-0.6-0.3-1.1-0.3-1.7
				C-1.2,21.6-1,21.7-0.7,21.8z"/>
			<path class="st18" d="M-0.7,21.8c-0.2-0.1-0.4-0.2-0.7-0.3c0-0.2,0.1-0.4,0.1-0.5C-1.1,21.3-0.9,21.5-0.7,21.8z"/>
			<path class="st21" d="M4.2,31.5c0.1,0,0.2,0,0.4,0c0,0.1,0,0.3,0.1,0.4c0,0-0.1,0.1-0.1,0.1C4.4,31.8,4.3,31.6,4.2,31.5z"/>
			<path class="st9" d="M5.7,33.5c0-0.1,0-0.2,0.1-0.4c0.1,0.2,0.2,0.3,0.2,0.4c0,0.1,0,0.2,0,0.3C5.8,33.7,5.8,33.6,5.7,33.5z"/>
			<path class="st21" d="M0,24.2c-0.1,0.1-0.1,0.3-0.2,0.4c0-0.3,0-0.6,0-0.8C-0.1,24-0.1,24.1,0,24.2z"/>
			<path class="st20" d="M3.6,29.7c0,0.1,0.1,0.2,0.1,0.3C3.7,29.9,3.7,29.8,3.6,29.7z"/>
			<path class="st8" d="M1.1,26.7c-0.1,0.1-0.1,0.2-0.2,0.2c0-0.1,0.1-0.3,0.1-0.4c0,0,0.1,0,0.1,0C1.1,26.6,1.1,26.6,1.1,26.7z"/>
			<path class="st21" d="M4.2,31.1c0,0.1,0,0.2,0,0.3C4.2,31.2,4.2,31.1,4.2,31.1z"/>
			<path class="st8" d="M4.5,32c0,0,0.1-0.1,0.1-0.1c0,0.1,0.1,0.1,0.1,0.2C4.6,32,4.5,32,4.5,32z"/>
			<path class="st8" d="M0.9,26.9c0,0.1,0,0.1,0,0.2C0.9,27.1,0.9,27,0.9,26.9z"/>
			<path class="st23" d="M1.1,26.5c0,0-0.1,0-0.1,0c0,0,0-0.1,0-0.1c0,0,0.1,0,0.1,0c0,0,0.1,0,0.1,0C1.1,26.5,1.1,26.5,1.1,26.5z"
				/>
			<path class="st9" d="M14,38.1c0.1-0.2,0.2-0.4,0.3-0.6c0.7,0,1.3,0,1.8,0.6c0,0.1,0,0.3,0,0.4c0,0,0,0.1,0,0.1
				c-0.7,0.2-1.3,0.4-1.7-0.4C14.2,38.2,14.1,38.2,14,38.1z"/>
			<path class="st19" d="M19.5,38.8c0.6,0,1.1-0.1,1.7-0.1c0.5,0,0.9,0.1,1.3-0.4c0.1-0.2,0.5-0.1,0.8-0.2c-0.4,0.6-0.9,0.9-1.6,0.8
				C21,38.9,20.3,38.8,19.5,38.8z"/>
			<path class="st21" d="M16.1,38.1c0.2,0,0.3,0.1,0.5,0.1c-0.2,0.1-0.3,0.2-0.5,0.3c0,0,0,0,0,0C16.1,38.4,16.1,38.3,16.1,38.1
				C16.1,38.2,16.1,38.1,16.1,38.1z"/>
			<path class="st21" d="M16,38.6c0,0,0-0.1,0-0.1c0,0,0.1,0,0.1,0c0,0,0,0,0,0C16.1,38.6,16.1,38.6,16,38.6z"/>
			<path class="st17" d="M0.2,12.2c0.1-0.3,0.1-0.6,0.2-0.9c0.1-0.6,0.3-1.2,0.4-1.8C1,9.4,1.1,9.3,1.3,9.2C1.6,9,2.1,8.9,2.2,8.7
				c0.1-0.3,0-0.8,0-1.1c0-0.1,0-0.2,0-0.3c0.1,0,0.3,0,0.4,0C2.5,7.9,2.4,8.5,2.2,9.1C2,9.6,1.5,9.9,1.3,10.4
				c-0.1,0.2,0.1,0.6,0.3,0.8c0.5,0.3,0.5,0.6,0.5,1.1c0,0.8-0.3,1.7,0.7,2.3c0.5,0.3,0.7,1,0.6,1.8c-0.1,0.5-0.1,1.2,0.1,1.7
				c0.1,0.3,0.5,0.4,0.9,0.6c0.1,0,0.3-0.4,0.5-0.6c0.2-0.2,0.5-0.6,0.8-0.6c0.6-0.1,0.3,0.4,0.4,0.7c-0.1,0.3-0.2,0.5-0.3,0.8
				c-0.2,0.1-0.6,0-0.7,0.2c-0.5,0.5-1,1-1.4,1.5c0,0.1-0.1,0.2-0.1,0.3c0,0.1,0,0.3,0,0.4c-0.3-0.1-0.5-0.1-0.8-0.2
				C2,20.9,2.1,20.4,2,20c-0.3-1.7-0.3-1.7-1.9-1.7c-0.2-0.1-0.4-0.1-0.7-0.2c0-0.1,0-0.1,0-0.2c0.2-0.1,0.4-0.2,0.5-0.3
				c0.1-0.1,0.3-0.2,0.2-0.2c-0.2-0.5,0-0.8,0.4-1c0.1-0.1,0.3-0.4,0.2-0.5c0-0.1-0.3-0.3-0.5-0.3c-0.6,0-0.7-0.3-0.4-0.8
				c0.1-0.2,0.3-0.4,0.3-0.6c0.1-0.2,0.2-0.6,0.1-0.7C0,13.1,0.2,12.6,0.2,12.2z"/>
			<path class="st9" d="M2.1,7.5c0,0.4,0.2,0.8,0,1.1C2.1,8.9,1.6,9,1.3,9.2c0.1-0.4,0.2-0.8,0.4-1.2C1.8,7.8,2,7.7,2.1,7.5z"/>
			<path class="st9" d="M2.6,7.3c-0.1,0-0.3,0-0.4,0C2,6.7,2.4,6.5,2.7,6.3C3,6.2,3.2,6,3.4,5.9c0,0.2,0.1,0.4,0,0.5
				C3.1,6.7,2.8,7,2.6,7.3z"/>
			<path class="st21" d="M12.5,36.6c-0.4,0-0.7,0-1.1,0c0-0.1,0-0.3,0-0.4c-0.3-0.5-0.5-1.1-1.1-1.4c0.1-0.1,0.2-0.2,0.2-0.3
				c0.1,0.1,0.2,0.2,0.3,0.3C11.4,35.3,11.9,36,12.5,36.6z"/>
			<path class="st18" d="M10.5,34.5c-0.1,0.1-0.2,0.2-0.2,0.3c-0.3,0-0.5-0.1-0.8-0.1c0.2-0.2,0.3-0.4,0.5-0.6
				c0-0.2,0.1-0.3,0.1-0.5c0.1,0,0.2,0,0.3-0.1c0.1,0.1,0.2,0.2,0.3,0.2C10.6,34,10.5,34.2,10.5,34.5z"/>
			<path class="st20" d="M11.4,36.2c0,0.1,0,0.3,0,0.4c-0.1,0.2-0.2,0.4-0.3,0.7c-0.5,0-0.8-0.3-0.8-0.8
				C10.7,36.4,11,36.3,11.4,36.2z"/>
			<path class="st21" d="M9.4,33.6c0-0.2,0-0.3,0-0.5c0,0,0.1-0.1,0.1-0.1c0.1,0.2,0.2,0.3,0.3,0.5c0,0.1,0,0.1,0,0.2
				C9.6,33.6,9.5,33.6,9.4,33.6z"/>
			<path class="st8" d="M9.7,33.6c0-0.1,0-0.1,0-0.2c0,0,0.1,0,0.1,0c0,0.1,0.1,0.1,0.1,0.2c0,0.2-0.1,0.3-0.1,0.5
				C9.9,33.9,9.8,33.7,9.7,33.6z"/>
			<path class="st9" d="M8.7,33.5c0.1,0,0.3,0.1,0.4,0.1C8.9,33.6,8.8,33.5,8.7,33.5z"/>
			<path class="st24" d="M10.8,23.3c0.6,0.3,1,0.3,1.4-0.3c0.2-0.4,0.8-0.6,1.2-0.8c0.1,0,0.2-0.1,0.3,0c0.4,0.7,1.4,0.3,1.8,1.2
				c0.3,0.6,0.9,1,1.4,1.5c0.2,0.2,0.4,0.5,0.4,0.8c0.1,0.6,0.3,0.7,0.9,0.6c0.3-0.1,0.8,0,0.9,0.2c0.4,0.4,0.6,1,0.9,1.4
				c0.6,0.5,0.7,1.5,1.7,1.7c0.6,0.1,1.2,0.7,1.8,1.2c-0.2,0.1-0.3,0.2-0.5,0.3C23,31,23,31.2,22.9,31.3c0.2,0.1,0.4,0.3,0.5,0.2
				c0.6-0.3,0.9,0.2,1.3,0.4c0.5,0.2,0.8,0.4,0.9,1.1c0,0.4,0.4,0.8,0.7,1.2c0.1,0,0.2,0,0.4,0c0.5-0.2,0.7,0.1,0.9,0.5
				c0.2,0.4,0,0.7-0.4,0.8c-0.3,0.1-0.7,0.3-0.9,0.5c-0.2,0.2-0.3,0.4-0.4,0.7c-1,0.4-2.1,0.7-3.1,1.1c-0.1-0.2-0.2-0.4-0.4-0.7
				c0.5-0.2,1.1-0.3,1.6-0.5c0-0.1,0.1-0.2,0-0.2c-0.2-0.3-0.4-0.7-0.6-1c-0.2,0.2-0.4,0.4-0.6,0.5C22.4,36,22.2,36.1,22,36
				c-0.1-0.1-0.1-0.3-0.1-0.5c0.1-0.6,0.1-1.1-0.6-1.4c-0.6-0.3-0.9-1.2-0.5-1.8c0.1-0.1,0.1-0.3,0.1-0.5c-0.7,0.3-1.4,0-1.9-0.6
				c-0.4-0.5-0.7-0.7-1.3-0.3c-0.1,0.1-0.3,0-0.5,0c0.1-0.2,0.2-0.4,0.2-0.5c0.1-0.2,0.3-0.4,0.3-0.6c-0.1-0.6-0.2-1.2-0.4-1.8
				c-0.2-0.5-0.8-0.6-1.1-0.1c-0.3,0.4-0.5,0.7-1,0.5c-0.4-0.2-0.6-0.5-0.8-1c-0.2-0.7-0.3-1.7-1.5-1.7c-0.1,0-0.2-0.3-0.2-0.4
				c0-0.2,0.2-0.3,0.3-0.5c0-0.1,0-0.1-0.1-0.2c-0.4,0-0.7,0.1-1.1,0.1c0.1-0.7,0.7-0.8,1-1.3c-0.3,0-0.6,0-0.8,0.2
				c-0.7,0.7-1.3,1.4-1.9,2.1c-0.1,0.1-0.3,0.2-0.5,0.3c0.1-0.3,0.2-0.7,0.2-1c0-0.2,0-0.3,0-0.5c0.1-0.2,0.1-0.5,0.2-0.7
				c0,0,0-0.1,0-0.1l0,0c0.1,0,0.2-0.1,0.3-0.1C10.7,23.4,10.7,23.3,10.8,23.3z"/>
			<path class="st25" d="M10.6,33.8c-0.1-0.1-0.2-0.2-0.3-0.2c-0.1-0.3-0.2-0.7-0.3-1c0,0,0-0.1,0-0.1c-0.3-1.1-0.4-2.2-0.4-3.3
				c0-0.5,0.1-1.1,0.1-1.6c0.1-0.1,0.2-0.1,0.3-0.2c0.6-0.7,1.2-0.6,1.7,0.1c0.2,0.3,0.4,0.7,0.7,0.8c0.5,0.2,0.5,0.4,0.2,0.8
				c-0.1,0.1-0.1,0.4-0.1,0.5c0.1,0.1,0.3,0.2,0.5,0.1c0.3-0.1,0.6-0.2,0.9-0.4c0.1,0.2,0.2,0.3,0.3,0.5c0.6,0.5,0.7,1.3,1.2,1.9
				c0.3,0.5,0.6,0.8,1.1,1.1c0.2-0.2,0.3-0.4,0.5-0.6c0.1,0.3,0.2,0.4,0.2,0.6c-0.2,0.7,0.2,1.3,0.8,1.5c0.6,0.2,1,0.4,1.2,1.1
				c0,0.1,0.3,0.1,0.5,0.2c0.2,0,0.3,0,0.5,0.1c0.1,0.6,0,1-0.6,1c-0.2,0-0.4,0.2-0.6,0.4c0,0,0.2,0.4,0.2,0.4
				c0.3,0,0.5-0.1,0.8-0.2c0.1,0,0.1-0.2,0.2-0.3c0.4-0.5,0.8-0.9,1.3-1.4c0.1,0,0.1,0.1,0.2,0.1c-0.1,0.2-0.1,0.3-0.2,0.5
				c-0.2,0.6-0.5,1.3-0.7,1.9c-0.7,0-1.5,0.1-2.2,0c-0.6,0-1.2-0.1-1.8-0.2c-0.1,0-0.3,0.2-0.4,0.3c0,0,0,0,0,0c0,0-0.1,0-0.1,0
				c-0.5-0.5-1.1-0.6-1.8-0.6c0,0,0-0.1,0-0.1c-0.2-0.2-0.4-0.4-0.7-0.6c-0.1-0.8-1.3-2-2.2-2.1c-0.2-0.1-0.4-0.2-0.6-0.3
				C10.7,34.2,10.6,34,10.6,33.8z"/>
			<path class="st26" d="M20.6,38c0.2-0.6,0.5-1.3,0.7-1.9c0.1-0.2,0.1-0.3,0.2-0.5c-0.1,0-0.1-0.1-0.2-0.1
				c-0.4,0.5-0.8,0.9-1.3,1.4C20,37,20,37.2,19.9,37.2c-0.2,0.1-0.5,0.2-0.8,0.2c-0.1,0-0.3-0.4-0.2-0.4c0.2-0.2,0.4-0.4,0.6-0.4
				c0.7-0.1,0.8-0.5,0.6-1c-0.2,0-0.3,0-0.5-0.1c-0.2,0-0.5-0.1-0.5-0.2c-0.1-0.7-0.5-0.9-1.2-1.1c-0.6-0.2-1-0.7-0.8-1.5
				c0-0.1-0.1-0.3-0.2-0.6c-0.2,0.3-0.3,0.4-0.5,0.6c-0.5-0.3-0.8-0.7-1.1-1.1c-0.4-0.6-0.6-1.4-1.2-1.9c-0.1-0.1-0.2-0.3-0.3-0.5
				c-0.3,0.1-0.6,0.3-0.9,0.4c-0.1,0-0.4,0-0.5-0.1c-0.1-0.1,0-0.3,0.1-0.5c0.3-0.4,0.3-0.6-0.2-0.8c-0.3-0.1-0.5-0.5-0.7-0.8
				c-0.5-0.7-1-0.8-1.7-0.1c-0.1,0.1-0.2,0.1-0.3,0.2c0,0-0.1,0-0.1,0c0-0.1,0-0.3,0-0.4c0-0.2,0-0.5,0-0.7c0-0.1,0-0.2,0-0.3
				c0.1-0.1,0.2-0.2,0.3-0.3c0,0,0,0,0,0c0.2-0.1,0.4-0.2,0.5-0.3c0.6-0.7,1.2-1.4,1.9-2.1c0.2-0.2,0.5-0.2,0.8-0.2
				c-0.3,0.5-1,0.6-1,1.3c0.4-0.1,0.8-0.1,1.1-0.1c0,0.1,0,0.1,0.1,0.2c-0.1,0.2-0.3,0.3-0.3,0.5c0,0.1,0.1,0.4,0.2,0.4
				c1.2,0,1.2,1,1.5,1.7c0.2,0.5,0.3,0.8,0.8,1c0.5,0.2,0.7-0.1,1-0.5c0.3-0.5,0.9-0.4,1.1,0.1c0.2,0.6,0.3,1.2,0.4,1.8
				c0,0.2-0.2,0.4-0.3,0.6c-0.1,0.2-0.2,0.4-0.2,0.5c0.2,0,0.4,0.1,0.5,0c0.6-0.4,0.9-0.2,1.3,0.3c0.5,0.7,1.1,0.9,1.9,0.6
				c0,0.2,0,0.4-0.1,0.5c-0.4,0.6-0.2,1.5,0.5,1.8c0.7,0.3,0.7,0.8,0.6,1.4c0,0.2,0,0.5,0.1,0.5c0.1,0.1,0.4,0,0.5-0.1
				c0.2-0.1,0.4-0.3,0.6-0.5c0.2,0.3,0.4,0.7,0.6,1c0,0,0,0.1,0,0.2c-0.5,0.2-1,0.3-1.6,0.5c0.2,0.3,0.3,0.5,0.4,0.7
				C22,38.3,21.3,38.1,20.6,38z M18.3,32.4c-0.1,0-0.1,0-0.2,0c-0.1,0.2-0.2,0.3-0.2,0.5c0,0.2,0.2,0.4,0.2,0.6
				c0.1-0.2,0.4-0.3,0.4-0.5C18.6,32.8,18.4,32.6,18.3,32.4z"/>
			<path class="st6" d="M10.8,34.5c0.2,0.1,0.4,0.2,0.6,0.3c0.3,0.3,0.5,0.5,0.8,0.8c0.3,0.4,0.7,0.9,1,1.3c-0.1,0-0.2-0.1-0.3-0.1
				c-0.1-0.1-0.3-0.1-0.4-0.2c-0.5-0.6-1.1-1.3-1.6-1.9C10.8,34.6,10.8,34.5,10.8,34.5z"/>
			<path class="st3" d="M12.9,36.8c0.1,0,0.2,0.1,0.3,0.1c0.1,0,0.3,0,0.4,0c0.2,0.2,0.4,0.4,0.7,0.6c-0.5,0-1-0.1-1.7-0.1
				C12.7,37,12.8,36.9,12.9,36.8z"/>
			<path class="st27" d="M31.6,34.2c-0.5,0.4-1,0.7-1.5,1.1C30,35.4,30,35.5,30,35.6c-0.3,0.2-0.5,0.5-0.8,0.7
				c-0.4,0.2-0.7,0.4-1.1,0.5c0.2-0.4,0.5-0.9,0.7-1.3c0.1-0.1,0.3-0.3,0.4-0.3c0.6,0,0.6-0.3,0.7-0.8c0.1-0.4,0.2-0.8,0.4-1.1
				c0.3-0.7-0.1-1-0.5-1.4c-0.2-0.2-0.4-0.6-0.6-0.8c-0.2-0.2-0.4-0.3-0.6-0.3c-0.4,0.1-0.6,0-0.9-0.3c-0.1-0.1-0.3-0.3-0.3-0.3
				c-0.6,0.3-0.8-0.2-1.1-0.5c-0.2-0.2-0.6-0.4-0.8-0.7c-0.2-0.2-0.3-0.5-0.4-0.8c-0.1-0.2,0-0.5-0.1-0.6c-0.2,0-0.5,0-0.7,0.1
				c-0.9,0.5-0.9,0.5-1.5-0.4c0.1-0.1,0.2-0.3,0.5-0.6c-0.5-0.4-1-0.8-1.5-1.1c-0.4-0.3-0.8-0.5-0.6-1.1c0.1-0.5-0.2-0.6-0.6-0.7
				c-0.2,0-0.4-0.2-0.5-0.4c0.2-0.1,0.4-0.2,0.5-0.4c0.1-0.1,0.4-0.4,0.4-0.4c-0.2-0.3-0.4-0.7-0.7-0.8c-0.7-0.1-0.7-0.5-0.5-1
				c0-0.1,0-0.2,0-0.3c0.6,0.3,1.1,0.6,1.7,0.8c0.2,0.1,0.4,0.1,0.6,0.1c0.4,0.1,0.8,0.3,1.2,0.5c0.4,0.2,0.7,0.5,1,0.6
				c0,0.6-0.1,1.2-0.1,1.9c0,0.1,0.1,0.3,0.2,0.3c0.1,0,0.3,0,0.3-0.1c0.4-0.5,1-0.5,1.4-0.1c0.2,0.2,0.4,0.4,0.5,0.6
				c0.2,0.5,0.4,0.8,1,0.9c0.3,0,0.4,0.7,0.7,1.1c0.1,0.2,0.3,0.4,0.5,0.5c0.5,0.1,0.7,0.3,0.7,0.7c0.1,0.4,0.2,0.8,0.7,0.8
				c0.1,0,0.2,0.3,0.3,0.5c0.2,0.3,0.3,0.6,0.5,0.9c0.1,0.3,0.3,0.5,0.5,0.7c0.2,0.3,0.4,0.4,0.6,0.1c0.2-0.3,0.5-0.6,0.9-1.1
				c0,0.3,0,0.5,0,0.7c0,0.2,0,0.5,0,0.7c0.1,0.4,0.2,0.9-0.6,0.7c-0.1,0-0.3,0.3-0.3,0.5C31.9,33.2,31.8,33.7,31.6,34.2z
				 M27.3,29.5c-0.3-0.4-0.5-0.7-0.7-1c-0.1-0.2-0.3-0.3-0.4-0.4c0,0-0.3,0.2-0.3,0.2c0,0.2,0,0.5,0.1,0.6c0.2,0.3,0.5,0.5,0.8,0.6
				C26.9,29.6,27.1,29.5,27.3,29.5z"/>
			<path class="st18" d="M10.8,23.3c-0.1,0.1-0.2,0.1-0.2,0.2c-0.1,0-0.2,0.1-0.3,0.1c0,0,0,0,0,0c-0.1,0-0.2,0-0.3,0
				C9.9,23.1,9.6,23,9.1,23c-0.6,0-1.2,0-1.8,0c-0.1,0-0.2,0-0.3,0c-0.4-0.1-0.7-0.2-1.1-0.2c0.1-0.1,0.3-0.4,0.4-0.4
				c1-0.1,2-0.2,3-0.1c0.6,0,1.2,0,1.4-0.7c0.1,0,0.3,0,0.4,0c-0.1,0.2-0.2,0.4-0.4,0.5c0.1,0.1,0.1,0.1,0.2,0.2
				c0.5-0.4,0.9-0.9,1.4-1.3c0-0.1,0-0.2,0-0.2c0.5-0.2,1.1-0.5,1.6-0.7c0,0.2,0,0.3,0.1,0.5c-0.1,0.1-0.1,0.2-0.2,0.2
				c-0.1,0-0.3,0.1-0.4,0.1c-0.3,0.1-0.6,0.2-0.8,0.4c-0.6,0.6-1.2,1.2-1.8,1.8C10.9,23.1,10.9,23.2,10.8,23.3z"/>
			<path class="st27" d="M17.2,19.8c-0.3,0.4-0.6,0.8-1,1.1c-0.2,0.1-0.6-0.1-0.9-0.3c-0.2-0.1-0.3-0.3-0.4-0.5
				c0.2-0.1,0.5-0.2,0.7-0.3C16.1,19.8,16.7,19.8,17.2,19.8z"/>
			<path class="st27" d="M11,23c0.6-0.6,1.1-1.2,1.8-1.8c0.2-0.2,0.5-0.3,0.8-0.4c0.1,0,0.3,0,0.4,0c0,0.1,0,0.2-0.1,0.2
				c-0.9,0.2-1.3,1.2-2.1,1.7C11.6,22.9,11.2,22.9,11,23z"/>
			<path class="st6" d="M17.2,19.8c-0.5,0-1.1,0.1-1.6,0.1c-0.2,0-0.5,0.2-0.7,0.3c-0.1,0-0.2,0-0.2,0c0-0.1,0.1-0.3,0.1-0.4
				c0-0.1,0-0.1,0-0.2c0.1,0,0.3,0,0.4,0c0.2,0,0.4,0,0.7-0.1c0.1,0,0.2,0,0.3,0c0.3,0,0.5,0,0.8,0c0.3,0,0.6-0.1,1-0.2
				c0,0.1,0,0.3,0,0.4C17.7,19.8,17.4,19.8,17.2,19.8z"/>
			<path class="st14" d="M17.9,19.8c0-0.1,0-0.3,0-0.4c0.7-0.3,1.3-0.2,1.9,0.1c-0.2,0.1-0.4,0.3-0.5,0.4c-0.4,0-0.8-0.1-1.2-0.1
				C18,19.8,17.9,19.8,17.9,19.8z"/>
			<path class="st27" d="M18,19.8c0.4,0,0.8,0.1,1.2,0.1c0.1,0.2,0.2,0.4,0.3,0.5C19,20.2,18.5,20,18,19.8z"/>
			<path class="st19" d="M14.8,19.7c0,0.1-0.1,0.3-0.1,0.4c-0.2,0.1-0.4,0.2-0.5,0.3c0-0.2,0-0.3-0.1-0.5c0,0,0,0,0,0
				c0.1-0.1,0.2-0.2,0.3-0.3c0,0,0,0,0,0C14.5,19.8,14.6,19.8,14.8,19.7z"/>
			<path class="st19" d="M14,20.9c-0.1,0-0.3,0-0.4,0c0.1,0,0.3-0.1,0.4-0.1C14,20.8,14,20.8,14,20.9z"/>
			<path class="st28" d="M21.4,18.9c0.8,0,1.6,0,2.4,0c1,0,2.1,0,3.1,0c0,0.2,0.1,0.4,0.1,0.5c-0.1,0.1-0.2,0.3-0.2,0.4
				c-0.2,0.1-0.5,0.3-0.7,0.4c0,0-0.1,0-0.1,0c-0.8,0-1.6,0-2.4,0c-0.2,0-0.5,0.1-0.7,0.1c-0.1,0-0.3,0-0.4,0c0,0-0.1,0-0.1-0.1
				c-0.1,0-0.2,0-0.3,0c0,0-0.1,0-0.1-0.1c-0.2-0.1-0.3-0.1-0.5-0.2c-0.3-0.1-0.7-0.3-1-0.4c-0.1,0-0.2,0-0.3,0c0,0,0-0.1,0-0.1
				c0-0.2,0-0.3,0-0.5C20.6,19.1,21,19,21.4,18.9z"/>
			<path class="st20" d="M23.6,20.3c0.8,0,1.6,0,2.4,0c0,0,0.1,0,0.1,0c0.2-0.1,0.5-0.3,0.7-0.4c0.1,0,0.3,0.1,0.4,0.1
				c0.7,0.4,1.4,0.1,1.5-0.8c-0.6,0.1-1.2,0.2-1.7,0.3c0-0.2-0.1-0.4-0.1-0.5c0-0.2,0.1-0.3,0.1-0.5c0.4,0,0.8,0,1.1,0
				c0.5,0,1-0.1,1.6-0.2c0.2,0,0.3,0,0.5,0c0,0.4-0.1,0.8-0.1,1.1c-1.1,0.6-2,1.6-3.4,1.5c0,0-0.1,0-0.1,0.1c0,0-0.1,0-0.1,0.1
				c-0.4,0-0.9,0-1.3,0c-0.5,0-0.9-0.1-1.4-0.1c-0.3-0.1-0.5-0.2-0.8-0.3C23.2,20.5,23.4,20.4,23.6,20.3z"/>
			<path class="st19" d="M19.8,19.5c-0.6-0.3-1.2-0.4-1.9-0.1c-0.3,0.1-0.6,0.1-1,0.2c-0.3,0-0.5,0-0.8,0c0.2-0.1,0.4-0.3,0.6-0.4
				c0.8-0.1,1.6-0.1,2.4-0.2c0.2,0,0.5,0,0.7,0c0,0.2,0.1,0.3,0.1,0.5C19.9,19.5,19.8,19.5,19.8,19.5z"/>
			<path class="st16" d="M23.9,20.9c0.5,0,0.9,0.1,1.4,0.1c-0.5,0.6-1,0.2-1.5,0.1C23.8,21,23.8,21,23.9,20.9z"/>
			<path class="st19" d="M23.9,20.9c0,0.1-0.1,0.2-0.1,0.2c-0.6,0-1.1,0-1.4-0.7c0,0,0.1,0,0.1,0c0.1,0,0.3,0,0.4,0
				c0,0,0.1,0.1,0.1,0.1C23.3,20.7,23.6,20.8,23.9,20.9z"/>
			<path class="st27" d="M31,30.1c0.1-0.2,0.3-0.4,0.4-0.6c0,0,0.2,0.1,0.3,0.1c-0.1,0.2-0.3,0.4-0.4,0.7
				C31.2,30.2,31.1,30.1,31,30.1z"/>
			<path class="st8" d="M20.5,19.7c0.3,0.1,0.7,0.3,1,0.4c-0.3,0-0.6-0.1-0.9-0.1C20.6,19.9,20.5,19.8,20.5,19.7z"/>
			<path class="st21" d="M19.9,19.5c0-0.2-0.1-0.3-0.1-0.5c0.1,0.1,0.3,0.1,0.4,0.2c0,0.2,0,0.3,0,0.5C20.1,19.6,20,19.5,19.9,19.5z
				"/>
			<path class="st14" d="M33.1,26.1c0,0.2,0,0.4-0.1,0.6c-0.1,0-0.2,0-0.3,0c0-0.2,0-0.4,0-0.6C32.9,26.1,33,26.1,33.1,26.1z"/>
			<path class="st6" d="M20.5,19.7c0.1,0.1,0.1,0.2,0.2,0.3c-0.1-0.1-0.3-0.2-0.4-0.3C20.3,19.7,20.4,19.7,20.5,19.7z"/>
			<path class="st6" d="M22,20.3c0,0,0.1,0,0.1,0.1C22.1,20.3,22,20.3,22,20.3z"/>
			<path class="st6" d="M22.5,20.4c0,0-0.1,0-0.1,0c0,0,0-0.1,0-0.1C22.4,20.4,22.5,20.4,22.5,20.4z"/>
			<path class="st21" d="M28.5,3.9c0.1,0.2,0.1,0.4,0.2,0.7c0,0.2,0,0.4,0,0.6l0,0c-0.2,0-0.3,0-0.5,0C28.1,5.1,27.9,5,27.8,5
				c0,0,0,0,0,0c0,0-0.1-0.1-0.1-0.1c-0.6-0.4-0.5-1.1-0.7-1.6c0.1-0.1,0.2-0.1,0.3-0.2c0.1,0.1,0.2,0.1,0.3,0.2
				C27.9,3.4,28.2,3.7,28.5,3.9z"/>
			<path class="st18" d="M27.8,13.5c0.1-0.4,0.1-0.8,0.2-1.2c0.2-0.1,0.4-0.2,0.5-0.3c0.2,0,0.4,0,0.6,0c0.1,0.2,0.1,0.4,0.2,0.5
				c0,0.1,0,0.3,0,0.4c-0.2,0.2-0.3,0.4-0.5,0.6c0,0-0.1,0.1-0.1,0.1c-0.2,0-0.4,0.1-0.6,0.1C28,13.7,27.9,13.6,27.8,13.5z"/>
			<path class="st5" d="M28.4,11.1c0-0.2,0-0.4,0-0.5c0.6-0.5,0.3-1.2,0.1-1.8c0-0.5,0-0.9,0-1.4c0.2,0.1,0.3,0.2,0.5,0.3
				c0.1,0.5,0.1,1,0.2,1.5c0,0.3,0.1,0.5,0.2,0.8c-0.3,0.4-0.6,0.7-0.8,1.1C28.4,11.1,28.4,11.1,28.4,11.1z"/>
			<path class="st5" d="M25,16.4c0.2-0.4,0.5-0.8,0.7-1.2c0.1-0.1,0.1-0.2,0.2-0.3c0.1,0,0.2-0.1,0.3-0.1c0.2-0.2,0.5-0.5,0.7-0.7
				c0.3-0.2,0.5-0.4,0.8-0.5c-0.1,0.2-0.2,0.5-0.2,0.7c-0.5,0.5-1,1.1-1.5,1.6c0,0-0.1,0.1-0.1,0.1c-0.1,0-0.1,0.1-0.2,0.1
				c0,0,0,0,0,0c-0.1,0.1-0.2,0.2-0.2,0.3C25.2,16.4,25.1,16.4,25,16.4z"/>
			<path class="st8" d="M29,7.7c-0.2-0.1-0.3-0.2-0.5-0.3c-0.1-0.3-0.2-0.5-0.3-0.8c0-0.5,0-1,0-1.5c0.2,0,0.3,0,0.5,0
				c0,0.8-0.2,1.7,0.6,2.3C29.1,7.5,29.1,7.6,29,7.7z"/>
			<path class="st18" d="M27.3,3c-0.1,0.1-0.2,0.1-0.3,0.2c-0.1,0-0.2,0-0.3,0c-0.1-0.2-0.2-0.4-0.3-0.6c0.1-0.2,0.1-0.3,0.2-0.5
				c0.2,0.1,0.4,0.2,0.5,0.3c0,0,0.1,0.1,0.1,0.1C27.3,2.8,27.3,2.9,27.3,3z"/>
			<path class="st9" d="M26.6,2.2c-0.1,0.2-0.1,0.3-0.2,0.5c-0.2-0.2-0.4-0.4-0.6-0.5c-0.1-0.2-0.2-0.4-0.3-0.5c0.1,0,0.1,0,0.2,0
				c0.3,0.1,0.6,0.2,0.8,0.3C26.6,1.9,26.6,2.1,26.6,2.2z"/>
			<path class="st22" d="M28.4,11.1c0,0,0.1,0,0.1,0c0,0.1,0,0.2,0,0.3c0,0.2,0,0.5,0,0.7c-0.2,0.1-0.4,0.2-0.5,0.3
				C27.6,11.7,27.9,11.4,28.4,11.1z"/>
			<path class="st4" d="M25.8,2.1c0.2,0.2,0.4,0.4,0.6,0.5c0.1,0.2,0.2,0.4,0.3,0.6c-0.3,0.3-0.8,0-0.9-0.5
				C25.8,2.5,25.8,2.3,25.8,2.1z"/>
			<path class="st22" d="M28.2,5.1c0,0.5,0,1,0,1.5c-0.4-0.5-0.5-1-0.4-1.6C27.9,5,28.1,5.1,28.2,5.1z"/>
			<path class="st22" d="M28.5,8.8c0.2,0.6,0.5,1.2-0.1,1.8C28.4,9.9,28.5,9.4,28.5,8.8z"/>
			<path class="st15" d="M23.7,15.1c-0.4,0-0.5-0.3-0.3-0.6c0.2-0.4,0.5-0.1,0.8,0.1C24,14.8,23.9,15,23.7,15.1z"/>
			<path class="st8" d="M27.4,14.2c0.1-0.2,0.2-0.5,0.2-0.7c0,0,0.1,0,0.1,0c0.1,0.1,0.2,0.1,0.3,0.2c0,0.2,0,0.3,0,0.5
				C27.9,14.2,27.7,14.2,27.4,14.2z"/>
			<path class="st22" d="M26.9,14.1c-0.2,0.2-0.5,0.5-0.7,0.7C26.4,14.5,26.6,14.3,26.9,14.1z"/>
			<path class="st18" d="M25.8,1.6c-0.1,0-0.1,0-0.2,0c0,0-0.1,0-0.1-0.1c0-0.1,0-0.1,0-0.2c0.1-0.1,0.2-0.2,0.3-0.3
				C25.8,1.2,25.8,1.4,25.8,1.6z"/>
			<path class="st22" d="M27.7,4.8c0,0,0.1,0.1,0.1,0.1C27.8,4.9,27.7,4.9,27.7,4.8z"/>
			<path class="st9" d="M33.5,7.8c0.1,0.4,0.3,0.8,0.4,1.2c-0.1,0-0.3,0.1-0.4,0.1c-0.9,0-1.9,0-2.8,0c-0.1,0-0.2,0-0.3,0
				c-0.1,0-0.3,0-0.4,0c-0.5-0.4-0.3-0.9-0.1-1.4C31.1,7.8,32.3,7.8,33.5,7.8z"/>
			<path class="st29" d="M34,9.7c0,0,0.1,0.1,0.1,0.1c0,0.1,0,0.1,0,0.2c0,0.1-0.1,0.3-0.1,0.4c0,0.1-0.1,0.2-0.1,0.4
				c0,0.1,0,0.1,0,0.2c0,0,0,0.1,0,0.1c0,0.1-0.1,0.3-0.1,0.4c0.1,0.1,0.2,0.2,0.2,0.3c0,0.2,0,0.4,0,0.5c-0.2,0.1-0.3,0.3-0.5,0.4
				c0,0-0.1,0-0.1,0c-0.1,0-0.3,0-0.4,0c-0.2,0-0.4,0-0.6,0c-0.5,0-1-0.1-1.5-0.1c0-0.3,0-0.7,0-1c0.3,0,0.5,0,0.9,0
				c-0.4-0.3-0.7-0.6-0.9-0.8c0.4,0,0.8,0,1.2,0c1,0,1,0,1-1C33.4,9.8,33.7,9.8,34,9.7z"/>
			<path class="st20" d="M33.8,15.4c-0.6,0.9-1.1,1.7-1.7,2.6c-0.2,0.1-0.4,0.2-0.6,0.3c0.3-0.3,0.5-0.6,0.8-1
				c0.1-0.2,0.2-0.4,0.3-0.6c-0.3,0-0.5,0-0.7,0c0.2-0.3,0.4-0.6,0.6-0.8c0,0,0-0.1,0-0.1c0.3-0.4,0.6-0.8,0.9-1.2
				c0.1,0,0.2,0,0.2-0.1c0.1,0.1,0.2,0.1,0.3,0.2c0,0.2,0,0.3,0,0.5c0,0,0,0.1,0,0.1C33.9,15.2,33.8,15.3,33.8,15.4z"/>
			<path class="st18" d="M33.5,7.8c-1.2,0-2.4,0-3.7,0c0-0.2,0.1-0.4,0.1-0.5c0,0,0.1-0.1,0.1-0.1c0.1,0,0.2,0,0.3,0
				c0.3,0,0.6,0,1,0l0,0c0.5,0,1.1,0,1.6,0c0.1,0,0.2,0.1,0.3,0.1c0.1,0.1,0.2,0.3,0.3,0.4C33.5,7.7,33.5,7.8,33.5,7.8z"/>
			<path class="st18" d="M30.7,9.2c0.9,0,1.9,0,2.8,0c0.1,0,0.3,0,0.4,0c0,0.1,0,0.3,0.1,0.4c-1.2,0-2.4,0-3.6,0c-0.1,0-0.2,0-0.2,0
				c-0.1,0-0.1,0-0.2-0.1c0-0.1,0-0.2,0-0.3c0.1,0,0.3,0,0.4,0C30.5,9.2,30.6,9.2,30.7,9.2z"/>
			<path class="st19" d="M33.9,15.1c0-0.2,0-0.3,0-0.5c0-0.1-0.1-0.2-0.1-0.3c0,0-0.1-0.1-0.1-0.1c0-0.1,0-0.2,0-0.2
				c0,0,0-0.1,0-0.1c0,0,0.1-0.1,0.1-0.1c0.1-0.2,0.2-0.5,0.3-0.7c0.1-0.1,0.3-0.1,0.4-0.2c0,0.6,0,1.2-0.1,1.7
				C34.4,14.8,34.1,14.9,33.9,15.1z"/>
			<path class="st8" d="M30.4,9.6c1.2,0,2.4,0,3.6,0c0,0,0,0.1,0,0.1c-0.3,0-0.6,0.1-0.9,0.1c-0.8,0-1.6,0.1-2.4,0.1
				C30.6,9.9,30.5,9.7,30.4,9.6z"/>
			<path class="st19" d="M31.5,18.3c0.2-0.1,0.4-0.2,0.6-0.3c0,0.1,0,0.2,0,0.3c0,0-0.1,0.1-0.1,0.1c-0.2,0.2-0.4,0.4-0.6,0.7
				c0,0-0.1,0.1-0.1,0.1c-0.3,0.1-0.6,0.3-0.9,0.4c0-0.1,0-0.1,0-0.2C30.8,19,31.1,18.7,31.5,18.3z"/>
			<path class="st20" d="M34.5,12.8c-0.1,0.1-0.3,0.1-0.4,0.2c-0.2-0.1-0.4-0.2-0.6-0.3c0.2-0.1,0.3-0.3,0.5-0.4c0.2,0,0.4,0,0.6,0
				C34.5,12.5,34.5,12.7,34.5,12.8z"/>
			<path class="st20" d="M33.8,11.1c0,0,0-0.1,0-0.1c0.2,0,0.4,0,0.6,0.1c0,0.2,0.1,0.3,0.1,0.5c0,0.1-0.1,0.2-0.1,0.3
				c-0.2,0-0.4,0-0.5,0c-0.1-0.1-0.2-0.2-0.2-0.3C33.7,11.3,33.8,11.2,33.8,11.1z"/>
			<path class="st19" d="M34.5,11c-0.2,0-0.4,0-0.6-0.1c0-0.1,0-0.1,0-0.2c0-0.1,0.1-0.2,0.1-0.4c0-0.1,0.1-0.3,0.1-0.4c0,0,0,0,0,0
				c0.1,0,0.1,0,0.2,0C34.3,10.4,34.4,10.7,34.5,11z"/>
			<path class="st18" d="M33.9,11.8c0.2,0,0.4,0,0.5,0c0.1,0,0.2,0,0.2,0c-0.1,0.2-0.1,0.4-0.2,0.5c-0.2,0-0.4,0-0.6,0
				C34,12.1,33.9,11.9,33.9,11.8z"/>
			<path class="st19" d="M34.7,11.8c-0.1,0-0.2,0-0.2,0c0-0.1,0.1-0.2,0.1-0.3C34.6,11.6,34.7,11.7,34.7,11.8z"/>
			<path class="st8" d="M33.9,9.2c-0.1,0-0.3,0-0.4,0c0.1,0,0.3-0.1,0.4-0.1C33.9,9.1,33.9,9.1,33.9,9.2z"/>
			<path class="st19" d="M33.8,15.4c0-0.1,0.1-0.1,0.1-0.2C33.9,15.2,33.8,15.3,33.8,15.4z"/>
			<path class="st8" d="M34.1,10C34.1,10,34,10,34.1,10c0-0.1,0-0.1,0-0.2c0,0,0.1,0,0.1,0C34.1,9.9,34.1,9.9,34.1,10z"/>
			<path class="st6" d="M34.1,10c0-0.1,0-0.1,0.1-0.2c0,0,0.1,0,0.1,0c0,0,0,0.1,0,0.1c0,0,0,0,0,0C34.2,10,34.1,10,34.1,10z"/>
			<path class="st19" d="M34.2,10c0,0,0-0.1,0-0.1C34.2,9.9,34.3,9.9,34.2,10C34.3,10,34.2,10,34.2,10z"/>
			<path class="st4" d="M15.8,1.3c0.3-0.2,0.4-0.3,0.6-0.4c0.1,0.2,0.3,0.4,0.4,0.6c0,0.1-0.3,0.3-0.3,0.3
				C16.2,1.7,16.1,1.6,15.8,1.3z"/>
			<path class="st2" d="M31.5,18.3c-0.4,0.4-0.7,0.8-1.1,1.1c0,0-0.1,0-0.1,0c0-0.4,0.1-0.8,0.1-1.1c0,0,0-0.1,0-0.1
				c0.1-0.2,0.2-0.3,0.2-0.5c0-0.2,0-0.4,0-0.6c0.3,0,0.5,0,0.8,0c0.1,0,0.1,0,0.2,0c0.1-0.1,0.2-0.2,0.4-0.3c0.2,0,0.4,0,0.7,0
				c-0.1,0.2-0.2,0.4-0.3,0.6C32,17.6,31.8,18,31.5,18.3z"/>
			<path class="st13" d="M30.4,19.6c0.3-0.1,0.6-0.3,0.9-0.4c-0.1,0.2-0.3,0.5-0.5,0.6C30.8,19.9,30.6,19.7,30.4,19.6z"/>
			<path class="st13" d="M31.5,19.1c0.2-0.2,0.4-0.4,0.6-0.7C31.9,18.6,31.7,18.9,31.5,19.1z"/>
			<path class="st19" d="M26.7,20.9c0,0,0.1,0,0.1-0.1C26.8,20.9,26.8,20.9,26.7,20.9z"/>
			<path class="st3" d="M28.5,3.9c-0.3-0.2-0.6-0.5-0.9-0.7c0.4,0,0.5-0.2,0.5-0.6c0.2-0.1,0.5-0.2,0.7-0.3c0.2,0,0.5,0,0.7,0
				c0.4,0.3,0.7,0.5,1.1,0.8c0,0.1,0,0.3,0,0.4c0,0.2,0,0.4,0,0.6c0,0.2,0,0.5-0.1,0.5c-0.2,0.1-0.4,0-0.6-0.1
				C29.3,4.4,28.9,4.1,28.5,3.9z"/>
			<path class="st18" d="M29.2,7.4c-0.8-0.6-0.5-1.5-0.6-2.3c0,0,0,0,0,0c0.2,0,0.5,0,0.5,0.1c0.3,0.7,0.9,0.3,1.4,0.4
				c0.3,0,0.6,0,0.9,0c0.3,0,0.5,0.2,0.2,0.5c-0.7,0-1.4,0-2.2,0c0.1,0.3,0.1,0.6,0.2,0.9C29.5,7.2,29.3,7.3,29.2,7.4z"/>
			<path class="st9" d="M29.6,7.1c-0.1-0.3-0.1-0.6-0.2-0.9c0.8,0,1.5,0,2.2,0c-0.1,0.3-0.2,0.6-0.3,0.9c0,0,0,0,0,0
				c-0.3,0-0.6,0-1,0c-0.1,0-0.2,0-0.3,0c-0.1,0-0.1,0-0.2,0C29.9,7.2,29.7,7.1,29.6,7.1z"/>
			<path class="st9" d="M30.5,5.6c-0.5,0-1,0.3-1.4-0.4c-0.1-0.1-0.4-0.1-0.5-0.1c0-0.2,0-0.4,0-0.6c0.4,0.2,0.9,0.3,1.3,0.5
				C30.2,5.1,30.3,5.4,30.5,5.6z"/>
			<path class="st21" d="M33.2,7.3c-0.1,0-0.2-0.1-0.3-0.1c0.1,0,0.2-0.1,0.3-0.1C33.2,7.1,33.2,7.2,33.2,7.3z"/>
			<path class="st29" d="M28.1,2.6c0,0.3,0,0.6-0.5,0.6c-0.1-0.1-0.2-0.1-0.3-0.2c0-0.1,0-0.3-0.1-0.4c0,0-0.1-0.1-0.1-0.1
				c-0.2-0.1-0.4-0.2-0.5-0.3c0-0.1,0-0.2,0-0.3c0.4-0.2,0.7-0.4,1.1-0.5c0,0.1,0,0.3,0,0.4C27.8,2,28,2.3,28.1,2.6z"/>
			<path class="st2" d="M26.3,0.5c0.2,0,0.5,0.1,0.7,0.1C26.8,0.5,26.6,0.5,26.3,0.5z"/>
			<path class="st7" d="M28.1,2.6c-0.1-0.3-0.3-0.6-0.4-1c0.3,0.1,0.5,0.2,0.8,0.3c0.1,0.1,0.2,0.3,0.3,0.4
				C28.5,2.5,28.3,2.6,28.1,2.6z"/>
			<path class="st7" d="M30.5,3.2c-0.4-0.3-0.7-0.5-1.1-0.8c0.4,0.2,0.7,0.3,1.1,0.5C30.5,3,30.5,3.1,30.5,3.2z"/>
			<path class="st29" d="M5.7,18.9c0.1-0.3,0.2-0.5,0.3-0.8c0.3-0.2,0.6-0.4,0.9-0.6c0.3-0.1,0.6-0.2,0.8-0.3c0,0.1,0,0.2,0,0.3
				c-0.1,0.1-0.2,0.2-0.2,0.4c-0.1,0.1-0.1,0.3-0.3,0.4C6.7,18.6,6.2,18.8,5.7,18.9L5.7,18.9z"/>
			<path class="st8" d="M8.3,17.2c0.5,0,1,0,1.5,0c0,0,0.1,0.1,0.1,0.1c-0.2,0.1-0.4,0.1-0.7,0.2c-0.3,0.1-0.5,0.2-0.8,0.3
				c-0.1,0-0.3,0-0.4,0.1c0-0.1,0-0.1,0-0.2c0-0.1,0.1-0.2,0.1-0.3C8.2,17.3,8.2,17.2,8.3,17.2z"/>
			<path class="st9" d="M8.1,17.3c0,0.1-0.1,0.2-0.1,0.3c-0.1,0-0.2,0-0.3,0c0-0.1,0-0.2,0-0.3C7.8,17.3,8,17.3,8.1,17.3z"/>
			<path class="st2" d="M8.4,17.7c0.3-0.1,0.5-0.2,0.8-0.3c0.2-0.1,0.4-0.1,0.7-0.2c0.7-0.1,1.5-0.2,2.2-0.2c0,0,0,0.1,0,0.1
				c0,0.2,0,0.3,0,0.5c-0.2,0.1-0.4,0.1-0.6,0.2C11.3,17.9,11,18,10.8,18c-0.2,0-0.3,0-0.5,0c0.1,0.1,0.1,0.3,0.2,0.4
				c0.3,0.2,0.4,0.4,0.1,0.6c-0.7,0-1.4,0-2.1,0c-0.3,0-0.5,0.2-0.8,0.2c-0.3-0.5-0.2-0.8,0.3-1.1C8.2,18,8.3,17.9,8.4,17.7z"/>
			<path class="st21" d="M17,18.1c-0.4,0.4-0.8,0.5-1.4,0.2c-0.1-0.1-0.3-0.1-0.5-0.1c0-0.2,0-0.4,0-0.7c0-0.1,0-0.1,0-0.2
				c0.5,0.1,1,0.2,1.5,0.3C16.7,17.9,16.8,18,17,18.1z"/>
			<path class="st18" d="M15.1,17.5c0,0.1,0,0.1,0,0.2c-0.1,0-0.2,0-0.3,0c-0.1,0-0.1,0-0.2,0c-0.8,0-1.7,0.1-2.5,0.1
				c0-0.2,0-0.3,0-0.5c0.9,0,1.8,0.1,2.7,0.1C14.9,17.4,15,17.4,15.1,17.5z"/>
			<path class="st21" d="M14.8,17.3c-0.9,0-1.8-0.1-2.7-0.1c0,0,0-0.1,0-0.1c0.8,0,1.6-0.1,2.4-0.1C14.5,17,14.7,17.2,14.8,17.3z"/>
			<path class="st23" d="M17,18.1c-0.1-0.1-0.3-0.3-0.4-0.4c0.1,0,0.2-0.1,0.4-0.1c0.1,0.2,0.2,0.4,0.3,0.6
				C17.1,18.1,17.1,18.1,17,18.1z"/>
			<path class="st15" d="M21.1,14.9c0,0.3,0.1,0.5,0.1,0.8c-0.2,0-0.5,0-0.5,0c-0.1-0.2,0-0.5-0.1-0.8
				C20.8,14.9,20.9,14.9,21.1,14.9z"/>
			<path class="st8" d="M25,16.4c0.1,0,0.3,0,0.4,0.1c-0.1,0.2-0.3,0.4-0.4,0.6c-0.1,0-0.2,0.1-0.2,0.1c0,0-0.1,0-0.1,0
				c0-0.1-0.1-0.1-0.1-0.2C24.6,16.8,24.8,16.6,25,16.4z"/>
			<path class="st9" d="M24.5,17c0,0.1,0.1,0.1,0.1,0.2c0,0.1,0,0.2-0.1,0.3c-0.2,0-0.4,0-0.6,0c0-0.1,0-0.2-0.1-0.4
				C24.1,17.1,24.3,17,24.5,17z"/>
			<path class="st12" d="M21.7,8.7c0,0,0,0.1-0.1,0.1c0,0-0.1,0-0.1,0c0,0,0-0.1,0.1-0.1C21.6,8.7,21.6,8.7,21.7,8.7z"/>
			<path class="st28" d="M7.7,19.2C8,19.1,8.2,19,8.5,19c0.7,0,1.4,0,2.1,0c1.3,0,2.6,0.1,3.8,0.1c0,0.1,0,0.2,0.1,0.3
				c0,0.1-0.1,0.3-0.1,0.4c0,0,0,0,0,0c-0.1,0.1-0.2,0.2-0.3,0.3c0,0,0,0,0,0c-0.5,0.2-1.1,0.5-1.6,0.7c-0.4,0.3-0.6-0.1-0.9-0.3
				c-0.9,0-1.9-0.1-2.8-0.1c-0.1,0-0.1,0-0.2,0c0,0-0.1,0.1-0.1,0.1c0,0,0,0,0,0c-0.3,0-0.7,0.1-1,0.1C7.5,20.1,7.6,19.7,7.7,19.2z"
				/>
			<path class="st28" d="M14.8,17.6c0.1,0,0.2,0,0.3,0c0,0.2,0,0.4,0,0.7c-0.6,0.1-1.3,0.1-1.9,0.1c-0.6,0-1.2,0.1-1.7-0.3
				c-0.1-0.1-0.4,0-0.7-0.1c0.2,0,0.5-0.1,0.7-0.1c0.2,0,0.4-0.1,0.6-0.2c0.8,0,1.7-0.1,2.5-0.1C14.6,17.6,14.7,17.6,14.8,17.6z"/>
			<path class="st20" d="M14.5,19.4c0-0.1,0-0.2-0.1-0.3c0.7-0.5,1.8-0.5,2.3,0c-0.2,0.1-0.4,0.3-0.6,0.4c-0.1,0-0.2,0-0.3,0
				c-0.2,0-0.4,0-0.7,0.1c-0.1,0-0.3,0-0.4,0C14.7,19.5,14.6,19.4,14.5,19.4z"/>
			<path class="st18" d="M27.1,18.4c0,0.2-0.1,0.3-0.1,0.5c-1,0-2.1,0-3.1,0c0-0.2,0-0.4,0-0.5c0,0,0-0.1,0-0.1
				c0.8,0,1.6,0.1,2.3,0.1C26.5,18.4,26.8,18.4,27.1,18.4z"/>
			<path class="st28" d="M26.2,18.4c-0.8,0-1.6-0.1-2.3-0.1c-0.1-0.1-0.1-0.3-0.2-0.4c0.1-0.1,0.1-0.2,0.2-0.4c0.2,0,0.4,0,0.6,0
				c0.1-0.1,0.1-0.2,0.2-0.3c0.1,0,0.2-0.1,0.2-0.1c0.2,0.1,0.4,0.2,0.6,0.3c0.3,0.1,0.6,0.2,0.8,0.4C26.3,17.9,26.3,18.2,26.2,18.4
				z"/>
			<path class="st29" d="M0.1,18.3c1.7,0,1.6,0,1.9,1.7c0.1,0.4,0,0.9,0.6,1.1c0.2,0.1,0.5,0.1,0.8,0.2c0.1,0.1,0.1,0.2,0.2,0.3
				c0,0,0,0.1,0,0.1c-0.1,0.1-0.4,0.1-0.4,0.2c-0.2,0.6-0.3,1.2-0.4,1.8l0,0c-0.4,0.1-1,0.1-1,0.2c-0.1,0.4,0,0.9,0.2,1.3
				c0.2,0.4,0.5,0.7,0.2,1.1c-0.2,0.2-0.7,0.1-1,0.1c0,0-0.1,0-0.1,0c-0.2-0.5-0.3-1-0.5-1.5c-0.2-0.6-0.4-1.1-0.5-1.7
				c-0.1-0.7,0-1.3,0.1-2.1c-0.1,0-0.3,0-0.5,0C-0.3,20.2-0.1,19.2,0.1,18.3z"/>
			<path class="st29" d="M0.2,12.2c-0.1,0.5-0.2,0.9,0.2,1.3c0.1,0.1,0,0.5-0.1,0.7c-0.1,0.2-0.2,0.4-0.3,0.6
				c-0.3,0.5-0.2,0.8,0.4,0.8c0.2,0,0.4,0.1,0.5,0.3c0,0.2-0.1,0.4-0.2,0.5c-0.5,0.2-0.7,0.5-0.4,1c0,0-0.2,0.2-0.2,0.2
				c-0.2-0.6-0.3-1.2-0.5-1.9c-0.1-0.5-0.1-0.9,0.2-1.2c0.4-0.5,0-0.9-0.2-1.3C-0.2,12.9,0,12.5,0.2,12.2z"/>
			<path class="st21" d="M4.1,29c-0.2-0.4-0.4-0.7-0.5-1.1c0.2,0,0.4,0,0.5,0l0.1,0l0.1,0c0,0,0.1,0,0.1,0c0.2,0.1,0.3,0.4,0.5,0.4
				c1,0,2.1-0.1,3.1-0.1c0,0.3,0,0.5,0,0.8c-0.2,0-0.5,0-0.7,0C6.1,29,5.1,29,4.1,29z"/>
			<path class="st29" d="M7.2,29c0.2,0,0.5,0,0.7,0c0.1,0.2,0.3,0.4,0.4,0.6c0,0.1,0,0.2,0,0.3C8.2,29.9,8.1,30,8,30.1
				c-0.3,0-0.6,0.1-0.9,0.1C7.1,29.8,7.1,29.4,7.2,29z"/>
			<path class="st29" d="M7.7,31.1c0.1,0,0.3,0.1,0.4,0.1C8,31.6,7.9,32,7.8,32.4c-0.1,0-0.2-0.1-0.3-0.1
				C7.6,31.9,7.7,31.5,7.7,31.1z"/>
			<path class="st23" d="M7,32.3c-0.2,0.4-0.5,0.4-0.7,0C6.6,32.3,6.8,32.3,7,32.3z"/>
			<path class="st23" d="M7.8,32.4C7.9,32,8,31.6,8.1,31.2c0.1,0,0.2,0,0.3,0c0,0,0.1,0,0.1,0c0,0.8,0.3,1.1,0.9,1.2
				c0,0.2,0,0.4,0,0.6c0,0-0.1,0.1-0.1,0.1c-0.2-0.1-0.4-0.2-0.6-0.3C8.4,32.7,8.1,32.5,7.8,32.4z"/>
			<path class="st20" d="M8.5,31.2c0,0-0.1,0-0.1,0c-0.1-0.2-0.3-0.3-0.5-0.6c0-0.1,0-0.3,0-0.5c0.1-0.1,0.2-0.2,0.3-0.2
				c0.2,0.1,0.3,0.2,0.5,0.3c0,0,0,0,0,0c0,0.1,0,0.2-0.1,0.3C8.7,30.6,8.6,30.9,8.5,31.2z"/>
			<path class="st20" d="M3.5,21.7C3.5,21.7,3.5,21.6,3.5,21.7c0.1-0.2,0.3-0.4,0.4-0.5C3.9,21.1,4,21,4,21c0,0,0,0,0,0
				c0,0,0.1,0,0.1,0c0.5,0.5-0.1,0.8-0.3,1.1c-0.4,0.8-0.3,1.1,0.6,1.1c0,0.2,0,0.4,0,0.7c-0.2,0.3-0.3,0.5-0.5,0.8
				c-0.7,0.6-0.7,1,0,1.5c0.5,0.1,1,0.1,1.5,0.2c0,0.7-0.6,0.2-0.8,0.5c-0.4,0.1-0.8,0.2-1.2,0.3c-0.2,0-0.4-0.1-0.7-0.1
				c0-1.1,0-2.2,0-3.3c0,0,0,0,0,0c0.2-0.2,0.4-0.3,0.5-0.5c0.1-0.3,0.2-0.7,0.2-1.1c0-0.1,0.1-0.2,0.1-0.3
				C3.5,21.8,3.5,21.7,3.5,21.7z"/>
			<path class="st9" d="M2.7,23.7c0,1.1,0,2.2,0,3.3c0,0.4,0,0.7,0,1.1c-0.6,0-1-0.1-1.1-0.8c0-0.2-0.3-0.4-0.5-0.5
				c0-0.1,0-0.1,0-0.2c0,0,0-0.1,0-0.1c0.3,0,0.8,0.1,1-0.1c0.3-0.3,0-0.7-0.2-1.1c-0.2-0.4-0.3-0.9-0.2-1.3
				C1.7,23.8,2.3,23.8,2.7,23.7z"/>
			<path class="st9" d="M3.4,27.1c0.4-0.1,0.8-0.2,1.2-0.3c0.7,0,1.4,0.1,2,0.1c0.5,0.1,1,0.2,1.5,0.3c0,0.1,0,0.2,0,0.3
				c-0.2,0.1-0.3,0.1-0.5,0.2c-0.2,0-0.3,0-0.5,0c-0.3,0-0.5,0-0.8,0c-0.3,0-0.6,0.2-0.9,0.2c-0.4,0-0.7,0-1.1,0c0,0-0.1,0-0.1,0
				c0,0-0.1,0-0.1,0c-0.2,0-0.4,0-0.5,0C3.5,27.6,3.4,27.4,3.4,27.1z"/>
			<path class="st8" d="M16,38.1c0,0,0.1,0,0.1,0c0,0.1,0,0.2,0,0.4c0,0-0.1,0-0.1,0C16,38.4,16,38.3,16,38.1z"/>
			<path class="st9" d="M3.9,21.1c-0.1,0.2-0.3,0.3-0.4,0.5c-0.1-0.1-0.1-0.2-0.2-0.3c0-0.1,0-0.3,0-0.4c0-0.1,0.1-0.2,0.1-0.3
				c0.5-0.5,0.9-1,1.4-1.5C5.1,19,5.4,19,5.7,18.9c0,0,0,0,0,0c-0.1,0.1-0.1,0.2-0.2,0.4c0,0-0.1,0-0.1,0c0,0-0.1,0.1-0.1,0.1
				c0,0,0,0,0,0c0,0-0.1,0.1-0.1,0.1c-0.3,0.4-0.7,0.8-1,1.2c0,0-0.1,0.1-0.1,0.1c0,0,0,0,0,0C4,21,3.9,21.1,3.9,21.1z"/>
			<path class="st29" d="M3.5,20.6c0,0.1-0.1,0.2-0.1,0.3C3.4,20.8,3.5,20.7,3.5,20.6z"/>
			<path class="st19" d="M10.8,34.5c0,0.1,0,0.2,0,0.3c-0.1-0.1-0.2-0.2-0.3-0.3c0-0.2,0-0.5,0-0.7C10.6,34,10.7,34.2,10.8,34.5z"/>
			<path class="st6" d="M10,32.5c0.1,0.3,0.2,0.7,0.3,1c-0.1,0-0.2,0-0.3,0.1c0-0.1-0.1-0.1-0.1-0.2C9.9,33.1,10,32.8,10,32.5z"/>
			<path class="st19" d="M10,32.5c0,0.3-0.1,0.5-0.1,0.8c0,0-0.1,0-0.1,0c-0.1-0.2-0.2-0.3-0.3-0.5c0-0.2,0-0.4,0-0.6
				c0,0,0-0.1,0-0.1c0.2,0,0.4,0.1,0.5,0.1C10,32.5,10,32.5,10,32.5z"/>
			<path class="st6" d="M10,32.4c-0.2,0-0.4-0.1-0.5-0.1c-0.2-0.3-0.4-0.6-0.6-1c0,0-0.1-0.1-0.1-0.1c0-0.1,0-0.2,0-0.3c0,0,0,0,0,0
				c0,0,0-0.1,0-0.1c0-0.1,0-0.2,0-0.3c0-0.1,0-0.3,0-0.4c0,0,0,0,0,0c0-0.2,0-0.5,0-0.7c0-0.2,0-0.4,0-0.5c0,0,0-0.1,0-0.1
				c0-0.1,0-0.2,0-0.3c0,0,0-0.1,0-0.1c0-0.2,0-0.4,0-0.6c0-0.1,0-0.2,0-0.2c0-0.3,0-0.6,0-1c0.2-0.2,0.4-0.4,0.5-0.6
				c0.3-0.3,0.5-0.7,0.8-1c-0.1,0.3-0.2,0.7-0.2,1c0,0,0,0,0,0c-0.1,0.1-0.2,0.2-0.3,0.3c0,0.1,0,0.2,0,0.3c-0.5,0.2-0.3,0.5,0,0.7
				c0,0.1,0,0.3,0,0.4c0,0.5,0,1.1,0,1.6C9.6,30.3,9.7,31.3,10,32.4z"/>
			<path class="st19" d="M10.1,24.9c-0.3,0.3-0.5,0.7-0.8,1c-0.2,0.2-0.4,0.4-0.5,0.6c0-0.1,0-0.2-0.1-0.3c0-0.1,0-0.3,0-0.4
				c0-0.1,0-0.2,0.1-0.3c0.3-0.4,0.6-0.8,0.9-1.2c0.1,0,0.2,0,0.4,0C10.1,24.6,10.1,24.7,10.1,24.9z"/>
			<path class="st6" d="M10.1,24.4c-0.1,0-0.2,0-0.4,0c0,0,0-0.1,0-0.1c0-0.1,0.1-0.1,0.1-0.2C9.9,24,10,23.9,10,23.8
				c0.1,0,0.2-0.1,0.3-0.1C10.2,23.9,10.2,24.2,10.1,24.4z"/>
			<path class="st19" d="M10.3,23.7c-0.1,0-0.2,0.1-0.3,0.1c0,0,0-0.1,0-0.1c0,0,0-0.1,0-0.1c0.1,0,0.2,0,0.3,0
				C10.3,23.6,10.3,23.7,10.3,23.7z"/>
			<path class="st19" d="M10.3,23.6c0.1,0,0.2-0.1,0.3-0.1C10.5,23.5,10.4,23.5,10.3,23.6z"/>
			<path class="st24" d="M13.6,36.9c-0.1,0-0.3,0-0.4,0c-0.3-0.4-0.7-0.9-1-1.3c-0.2-0.3-0.5-0.6-0.8-0.8
				C12.3,34.9,13.5,36.1,13.6,36.9z"/>
			<path class="st24" d="M9.6,29.1c0-0.5,0-1.1,0-1.6c0,0,0.1,0,0.1,0C9.7,28.1,9.7,28.6,9.6,29.1z"/>
			<path class="st25" d="M18.3,32.4c0.1,0.2,0.3,0.4,0.2,0.6c0,0.2-0.2,0.3-0.4,0.5c-0.1-0.2-0.2-0.4-0.2-0.6c0-0.1,0.1-0.3,0.2-0.5
				C18.2,32.4,18.2,32.4,18.3,32.4z"/>
			<path class="st24" d="M9.6,27.1c-0.3-0.2-0.5-0.4,0-0.7C9.6,26.7,9.6,26.9,9.6,27.1z"/>
			<path class="st24" d="M9.6,26.2c0.1-0.1,0.2-0.2,0.3-0.3C9.8,26,9.7,26.1,9.6,26.2z"/>
			<path class="st10" d="M27.3,29.5c-0.2,0-0.4,0.1-0.4,0.1c-0.3-0.2-0.6-0.4-0.8-0.6C26,28.8,26,28.5,26,28.3
				c0-0.1,0.2-0.2,0.3-0.2c0.2,0.1,0.3,0.3,0.4,0.4C26.8,28.8,27,29.1,27.3,29.5z"/>
			<path class="st30" d="M4.4,23.8c0-0.2,0-0.4,0-0.7c0.3-0.5,0.7-0.9,1-1.4c0.3-0.5,0.7-0.9,1.3-1c0.1,0,0.3,0,0.4,0.1
				c0.5,0,1,0.1,1.5,0.1c0.1,0,0.3,0,0.4,0c0.1,0,0.2,0,0.3,0c0.1,0,0.2,0,0.3,0c0.1,0,0.2,0,0.3,0c0.2,0,0.4,0,0.7,0
				c0.1,0.2,0.2,0.4,0.3,0.6c-0.3,0.6-0.8,0.7-1.4,0.7c-1,0-2,0.1-3,0.1c-0.2,0-0.3,0.2-0.4,0.4c0.1,0.4,0.5,0.9,0,1.3
				C5.4,24,4.9,23.9,4.4,23.8z"/>
			<path class="st23" d="M5.9,24.1c0.5-0.4,0.1-0.9,0-1.3C6.3,22.8,6.7,22.9,7,23c0.1,0,0.2,0,0.3,0c0.6,0,1.2,0,1.8,0
				c0.4,0,0.8,0.1,0.9,0.6c0,0,0,0.1,0,0.1C9.7,23.9,9.3,24,9,24.2C8,24.2,6.9,24.1,5.9,24.1z"/>
			<path class="st20" d="M12.5,21c-0.5,0.4-0.9,0.9-1.4,1.3c-0.1-0.1-0.1-0.1-0.2-0.2c0.1-0.2,0.2-0.4,0.4-0.5
				c0.1-0.1,0.2-0.3,0.3-0.4C11.8,21.1,12.1,21,12.5,21z"/>
			<path class="st28" d="M11.5,21.1c-0.1,0.1-0.2,0.3-0.3,0.4c-0.1,0-0.3,0-0.4,0c-0.1-0.2-0.2-0.4-0.3-0.6c0.2,0,0.5,0,0.7,0
				C11.3,21,11.4,21.1,11.5,21.1z"/>
			<path class="st21" d="M11.5,21.1c-0.1,0-0.2-0.1-0.3-0.1c0.1-0.2,0.2-0.4,0.3-0.6c0.3,0.2,0.5,0.6,0.9,0.3c0,0.1,0,0.2,0,0.2
				C12.1,21,11.8,21.1,11.5,21.1z"/>
			<path class="st21" d="M7.3,23c-0.1,0-0.2,0-0.3,0C7.1,23,7.2,23,7.3,23z"/>
			<path class="st18" d="M14.5,19.4c0.1,0.1,0.2,0.2,0.3,0.2c0,0.1,0,0.1,0,0.2c-0.1,0-0.3,0-0.4,0C14.4,19.6,14.4,19.5,14.5,19.4z"
				/>
			<path class="st18" d="M15.2,19.6c0.2,0,0.4,0,0.7-0.1C15.6,19.5,15.4,19.6,15.2,19.6z"/>
			<path class="st18" d="M14.1,20c0.1-0.1,0.2-0.2,0.3-0.3C14.3,19.8,14.2,19.9,14.1,20z"/>
			<path class="st2" d="M27.1,19.5c0.6-0.1,1.1-0.2,1.7-0.3c-0.1,0.9-0.9,1.3-1.5,0.8c-0.1-0.1-0.3-0.1-0.4-0.1
				C27,19.8,27,19.6,27.1,19.5z"/>
			<path class="st18" d="M23.1,20.6c0,0-0.1-0.1-0.1-0.1c0.2,0,0.5-0.1,0.7-0.1C23.4,20.4,23.2,20.5,23.1,20.6z"/>
			<path class="st18" d="M26.2,20.3c0,0-0.1,0-0.1,0C26.1,20.3,26.1,20.3,26.2,20.3z"/>
			<path class="st30" d="M26.2,18.4c0-0.2,0.1-0.5,0.1-0.7c1.2,0,2.3,0,3.5,0c0,0.2,0,0.4,0,0.5c-0.5,0.1-1,0.1-1.6,0.2
				c-0.4,0-0.8,0-1.1,0C26.8,18.4,26.5,18.4,26.2,18.4z"/>
			<path class="st23" d="M29.9,18.3c0-0.2,0-0.4,0-0.5c0.5-0.3,0.4,0.2,0.5,0.4c0,0,0,0.1,0,0.1C30.2,18.2,30,18.2,29.9,18.3z"/>
			<path class="st23" d="M33.7,13.9c0,0.1,0,0.2,0,0.2c0,0,0,0.1,0,0.1c0,0,0,0.1,0,0.1c-0.1,0-0.2,0-0.2,0.1
				c-0.2,0-0.4,0.1-0.6,0.1c-1.2,0-2.5,0-3.7,0c-0.2,0-0.4-0.2-0.6-0.2c0.1-0.2,0.2-0.5,0.3-0.7c0,0,0.1-0.1,0.1-0.1
				c1.4,0,2.7,0.1,4.1,0.1C33.2,13.8,33.4,13.8,33.7,13.9z"/>
			<path class="st21" d="M33,13.7c-1.4,0-2.7-0.1-4.1-0.1c0.2-0.2,0.3-0.4,0.5-0.6c0.4-0.1,0.8-0.2,1.2-0.3c0,0,0.1,0,0.1,0
				c0.1,0.1,0.1,0.2,0.2,0.3c0-0.1,0.1-0.2,0.1-0.3c0,0,0,0,0,0c0.5,0,1,0.1,1.5,0.1c0.2,0.4,0.4,0.4,0.6,0c0.1,0,0.3,0,0.4,0
				c0,0.3,0,0.6,0,1C33.3,13.6,33.1,13.7,33,13.7z"/>
			<path class="st30" d="M30.6,12.7C30.6,12.7,30.6,12.6,30.6,12.7c-0.5,0-0.9-0.1-1.3-0.1c-0.1-0.2-0.1-0.4-0.2-0.5
				c0.1-0.1,0.2-0.2,0.3-0.3c0.2-0.1,0.4-0.2,0.5-0.3c0.1,0.1,0.2,0.1,0.3,0.2c0.2,0,0.4,0.1,0.6,0.1c0,0.3,0,0.7,0,1c0,0,0,0,0,0
				C30.9,12.7,30.8,12.7,30.6,12.7z"/>
			<path class="st20" d="M29.4,11.7c-0.1,0.1-0.2,0.2-0.3,0.3c-0.2,0-0.4,0-0.6,0c0-0.2,0-0.5,0-0.7c0.3-0.1,0.7-0.2,1.1-0.3
				C29.5,11.4,29.5,11.5,29.4,11.7z"/>
			<path class="st8" d="M29.3,12.6c0.4,0,0.8,0.1,1.2,0.1c-0.4,0.1-0.8,0.2-1.2,0.3C29.3,12.8,29.3,12.7,29.3,12.6z"/>
			<path class="st28" d="M28.8,13.7c-0.1,0.2-0.2,0.5-0.3,0.7c-0.1,0-0.3-0.1-0.4-0.1c0-0.2,0-0.3,0-0.5
				C28.3,13.7,28.6,13.7,28.8,13.7z"/>
			<path class="st20" d="M29.6,7.1c0.1,0,0.3,0,0.4,0.1c0,0,0,0.1,0,0.1c0,0.2-0.1,0.4-0.1,0.5c-0.1,0.5-0.4,1,0.1,1.4
				c0,0.1,0,0.2,0,0.3c0,0,0,0.1,0,0.1c-0.1,0.1-0.3,0.2-0.4,0.3c-0.1,0-0.2,0-0.2,0c-0.1-0.3-0.1-0.5-0.2-0.8
				c-0.1-0.5-0.1-1-0.2-1.5c0.1-0.1,0.1-0.2,0.2-0.3C29.3,7.3,29.5,7.2,29.6,7.1z"/>
			<path class="st18" d="M29.3,10c0.1,0,0.2,0,0.2,0c0.2,0.3,0.4,0.6,0.6,1c-0.1,0.1-0.1,0.3-0.2,0.4c-0.2,0.1-0.4,0.2-0.5,0.3
				c0-0.2,0.1-0.4,0.1-0.7c-0.4,0.1-0.7,0.2-1.1,0.3c0-0.1,0-0.2,0-0.3C28.8,10.7,29.1,10.3,29.3,10z"/>
			<path class="st18" d="M28.1,14.2c0.1,0,0.3,0.1,0.4,0.1c0.2,0.1,0.4,0.2,0.6,0.2c1.2,0,2.5,0,3.7,0c0.2,0,0.4-0.1,0.6-0.1
				c-0.3,0.4-0.6,0.8-0.9,1.2c0,0,0-0.1,0-0.1c0-0.1-0.1-0.2-0.1-0.3c-0.1,0-0.2,0-0.3,0c-0.1-0.1-0.2-0.2-0.3-0.2
				c-1.1,0-2.2,0-3.3,0c-0.1,0-0.2,0.2-0.3,0.2c0,0,0,0,0,0c-0.2,0-0.4,0-0.7,0c-0.2,0.2-0.4,0.3-0.6,0.5c-0.1,0.1-0.2,0.2-0.2,0.4
				c-0.1,0.7-0.5,1-1.1,1.2c-0.2-0.1-0.4-0.2-0.6-0.3c0.1-0.2,0.3-0.4,0.4-0.6c0.1-0.1,0.2-0.2,0.2-0.3c0,0,0.1,0,0.1,0
				c0,0,0,0,0-0.1c0.1,0,0.1-0.1,0.2-0.1c0.1,0,0.1,0,0.2,0c0,0,0-0.1-0.1-0.1c0.5-0.5,1-1.1,1.5-1.6C27.7,14.2,27.9,14.2,28.1,14.2
				z"/>
			<path class="st21" d="M25.9,15.8C25.9,15.9,25.9,15.9,25.9,15.8c0,0.1,0,0.1-0.1,0.1C25.8,15.9,25.9,15.9,25.9,15.8z"/>
			<path class="st8" d="M25.7,16.1C25.7,16.1,25.7,16.1,25.7,16.1C25.7,16.2,25.6,16.2,25.7,16.1C25.6,16.1,25.7,16.1,25.7,16.1z"/>
			<path class="st21" d="M27.2,2.5c0,0,0.1,0.1,0.1,0.1C27.2,2.6,27.2,2.6,27.2,2.5z"/>
			<path class="st21" d="M30.7,9.2c-0.1,0-0.2,0-0.3,0C30.5,9.2,30.6,9.2,30.7,9.2z"/>
			<path class="st17" d="M30.7,10c0.8,0,1.6-0.1,2.4-0.1c0,1,0,1-1,1c-0.4,0-0.8,0-1.2,0c0,0-0.1,0-0.1,0
				C30.8,10.5,30.7,10.2,30.7,10z"/>
			<path class="st9" d="M30.8,10.8c0,0,0.1,0,0.1,0c0.3,0.2,0.5,0.4,0.9,0.8c-0.4,0-0.7,0-0.9,0c-0.2,0-0.4,0-0.6-0.1
				c-0.1,0-0.2-0.1-0.3-0.2c0.1-0.1,0.1-0.3,0.2-0.4C30.4,10.9,30.6,10.8,30.8,10.8z"/>
			<path class="st18" d="M33.4,13.6c0-0.3,0-0.6,0-1c0,0,0.1,0,0.1,0c0.2,0.1,0.4,0.2,0.6,0.3c-0.1,0.2-0.2,0.5-0.3,0.7
				c-0.1,0-0.2,0-0.3,0C33.5,13.6,33.5,13.6,33.4,13.6z"/>
			<path class="st8" d="M33,12.7c-0.2,0.4-0.4,0.4-0.6,0C32.6,12.7,32.8,12.7,33,12.7z"/>
			<path class="st8" d="M33.9,10.4c0,0.1-0.1,0.2-0.1,0.4C33.8,10.7,33.9,10.6,33.9,10.4z"/>
			<path class="st18" d="M33.8,11.1c0,0.1-0.1,0.3-0.1,0.4C33.7,11.3,33.8,11.2,33.8,11.1z"/>
			<path class="st30" d="M32.4,15.6c0,0,0,0.1,0,0.1c0,0,0,0.1,0,0.1c-0.7,0.3-1.3,0.6-2.1,0.4c-0.6-0.1-1.2,0-1.8,0.1
				c-0.2,0-0.4,0-0.7,0c-0.3-0.5,0-0.7,0.3-1c0,0,0,0,0,0c1.3,0,2.6,0,3.9,0c0.1,0,0.2,0,0.3,0C32.3,15.4,32.4,15.5,32.4,15.6z"/>
			<path class="st23" d="M28.5,16.4c0.6,0,1.3-0.2,1.8-0.1c0.8,0.2,1.4-0.1,2.1-0.4c-0.2,0.3-0.4,0.6-0.6,0.8
				c-0.1,0.1-0.2,0.2-0.4,0.3c-0.1,0-0.1,0-0.2,0c-0.3,0-0.5,0-0.8,0c-0.6-0.1-1.2-0.2-1.8-0.3C28.7,16.6,28.6,16.5,28.5,16.4z"/>
			<path class="st18" d="M33.6,14.4C33.6,14.4,33.6,14.3,33.6,14.4c0.1-0.1,0.1-0.1,0.2-0.1c0,0.1,0.1,0.2,0.1,0.3
				C33.8,14.5,33.7,14.5,33.6,14.4z"/>
			<path class="st21" d="M30.4,7.2c0.3,0,0.6,0,1,0C31,7.2,30.7,7.2,30.4,7.2z"/>
			<path class="st21" d="M30,7.3c0,0,0-0.1,0-0.1c0.1,0,0.1,0,0.2,0C30.1,7.2,30,7.2,30,7.3z"/>
			<path class="st30" d="M30.8,10.8c-0.2,0-0.4,0.1-0.7,0.1c-0.2-0.3-0.4-0.6-0.6-1c0.1-0.1,0.3-0.2,0.4-0.3c0.1,0,0.1-0.1,0.2-0.1
				c0.1,0,0.2,0,0.2,0c0.1,0.1,0.2,0.2,0.3,0.4C30.7,10.2,30.8,10.5,30.8,10.8z"/>
			<path class="st8" d="M30.1,9.6c-0.1,0-0.1,0.1-0.2,0.1c0,0,0-0.1,0-0.1C30,9.6,30.1,9.6,30.1,9.6z"/>
			<path class="st8" d="M33.4,13.6c0,0,0.1,0,0.1,0c0.1,0.1,0.1,0.1,0.2,0.2c0,0,0,0.1,0,0.1c-0.2-0.1-0.5-0.2-0.7-0.3
				C33.1,13.7,33.3,13.6,33.4,13.6z"/>
			<path class="st21" d="M33.7,13.8c-0.1-0.1-0.1-0.1-0.2-0.2c0.1,0,0.2,0,0.3,0C33.8,13.7,33.7,13.8,33.7,13.8z"/>
			<path class="st21" d="M33.8,14.3c0,0-0.1,0-0.1,0c0,0,0-0.1,0-0.1C33.7,14.2,33.8,14.3,33.8,14.3z"/>
			<path class="st21" d="M28.8,16.7c0.6,0.1,1.2,0.2,1.8,0.3c0,0.2,0,0.4,0,0.6c0,0.2-0.1,0.3-0.2,0.5c-0.1-0.2,0-0.7-0.5-0.4
				c-1.2,0-2.3,0-3.5,0c-0.3-0.1-0.6-0.2-0.8-0.4c0.6-0.2,1-0.5,1.1-1.2c0-0.1,0.2-0.2,0.2-0.4c0,0.3,0,0.5,0.1,0.8
				C27.6,16.7,28.2,16.7,28.8,16.7z"/>
			<path class="st21" d="M31.3,17c0.1,0,0.1,0,0.2,0C31.4,16.9,31.4,16.9,31.3,17z"/>
			<path class="st20" d="M7.2,20.9c-0.1,0-0.3,0-0.4-0.1c0.1-0.4,0.3-0.7,0.4-1.1C7.2,19.2,7,19,6.5,19.1c-0.3,0.1-0.7,0.1-1,0.2
				c0.1-0.1,0.1-0.2,0.2-0.4c0.5-0.2,1-0.4,1.5-0.7c0.1-0.1,0.2-0.2,0.3-0.4c0.2-0.1,0.3-0.1,0.5-0.2c0.1,0,0.3,0,0.4-0.1
				C8.3,17.9,8.2,18,8,18.1c-0.5,0.3-0.6,0.6-0.3,1.1c-0.1,0.4-0.3,0.9-0.4,1.3C7.3,20.7,7.2,20.8,7.2,20.9z"/>
			<path class="st23" d="M8,17.8c-0.2,0.1-0.3,0.1-0.5,0.2c0.1-0.1,0.2-0.2,0.2-0.4c0.1,0,0.2,0,0.3,0C8,17.7,8,17.7,8,17.8z"/>
			<path class="st21" d="M14.8,17.6c-0.1,0-0.1,0-0.2,0C14.6,17.6,14.7,17.6,14.8,17.6z"/>
			<path class="st21" d="M24.7,17.2c-0.1,0.1-0.1,0.2-0.2,0.3c0-0.1,0-0.2,0.1-0.3C24.6,17.2,24.7,17.2,24.7,17.2z"/>
			<path class="st18" d="M11.5,20.4c-0.1,0.2-0.2,0.4-0.3,0.6c-0.2,0-0.5,0-0.7,0c-0.2,0-0.4,0-0.7,0c-0.1,0-0.2,0-0.3,0
				c-0.1,0-0.2,0-0.3,0c-0.1,0-0.2,0-0.3,0c-0.1,0-0.3,0-0.4,0c0,0,0-0.1,0-0.1c0-0.2,0-0.4,0-0.5C9.6,20.4,10.6,20.4,11.5,20.4z"/>
			<path class="st8" d="M8.7,20.9c0,0,0,0.1,0,0.1c-0.5,0-1-0.1-1.5-0.1c0-0.1,0.1-0.2,0.1-0.3c0.3,0,0.7-0.1,1-0.1
				C8.5,20.6,8.6,20.7,8.7,20.9z"/>
			<path class="st21" d="M8.7,20.9c-0.1-0.1-0.2-0.3-0.3-0.4c0,0,0,0,0,0c0,0,0.1-0.1,0.1-0.1c0.1,0,0.1,0,0.2,0
				C8.7,20.5,8.7,20.7,8.7,20.9z"/>
			<path class="st8" d="M8.5,20.3c0,0-0.1,0.1-0.1,0.1C8.4,20.4,8.5,20.4,8.5,20.3z"/>
			<path class="st9" d="M3.4,22.1c-0.1,0.4-0.1,0.7-0.2,1.1c-0.1,0.2-0.3,0.4-0.5,0.5c0.1-0.6,0.2-1.2,0.4-1.8
				c0-0.1,0.3-0.2,0.4-0.2c0,0,0,0.1,0,0.1C3.5,21.9,3.5,22,3.4,22.1z"/>
			<path class="st20" d="M8.7,26.3c0,0.1,0,0.2,0.1,0.3c0,0.3,0,0.6,0,1c0,0.1,0,0.2,0,0.2c0,0.2,0,0.4,0,0.6c0,0,0,0,0,0
				c0,0,0,0.1,0,0.1c0,0.1,0,0.2,0,0.3c0,0,0,0,0,0c0,0,0,0.1,0,0.1c0,0.2,0,0.4,0,0.5c-0.2,0-0.4,0.1-0.5,0.1
				C8.1,29.4,8,29.2,7.9,29c0-0.3,0-0.5,0-0.8c0-0.1,0.1-0.3,0.1-0.4c0-0.1,0.1-0.2,0.1-0.3c0-0.1,0-0.2,0-0.3
				c0-0.1,0.1-0.2,0.1-0.3c0-0.2-0.1-0.4-0.1-0.6c0,0,0-0.1,0-0.1c0.1,0,0.2,0,0.3,0C8.5,26.2,8.6,26.2,8.7,26.3z"/>
			<path class="st8" d="M8,27.8c0,0.1-0.1,0.3-0.1,0.4c-1,0-2.1,0.1-3.1,0.1c-0.2,0-0.3-0.2-0.5-0.4c0.4,0,0.7,0,1.1,0
				c0.3,0,0.5,0.1,0.8,0c0.3,0,0.6-0.2,0.9-0.3c0.2,0,0.3,0,0.5,0C7.7,27.7,7.9,27.8,8,27.8z"/>
			<path class="st23" d="M4.1,27.9c0,0,0.1,0,0.1,0C4.2,27.9,4.1,27.9,4.1,27.9L4.1,27.9z"/>
			<path class="st18" d="M8.2,29.6c0.2,0,0.4-0.1,0.5-0.1c0,0.2,0,0.5,0,0.7c-0.2-0.1-0.3-0.2-0.5-0.3C8.2,29.7,8.2,29.6,8.2,29.6z"
				/>
			<path class="st18" d="M8.8,30.9c0,0.1,0,0.2,0,0.3c0,0,0.1,0.1,0.1,0.1c0.2,0.3,0.4,0.6,0.6,1c0,0,0,0.1,0,0.1
				c-0.7,0-0.9-0.4-0.9-1.2c0.1-0.3,0.2-0.6,0.2-0.8c0,0,0,0.1,0.1,0.1c0,0.1,0,0.2,0,0.3C8.8,30.8,8.8,30.9,8.8,30.9z"/>
			<path class="st19" d="M8.8,30.5c0,0,0-0.1-0.1-0.1c0-0.1,0-0.2,0.1-0.3C8.8,30.2,8.8,30.4,8.8,30.5z"/>
			<path class="st2" d="M5.5,19.3c0.3-0.1,0.7-0.1,1-0.2C7,19,7.2,19.2,7.1,19.7c-0.1,0.4-0.2,0.8-0.4,1.1c-0.7,0-1,0.5-1.3,1
				c-0.3,0.5-0.7,0.9-1,1.4c-0.9,0-1-0.3-0.6-1.1C4,21.7,4.6,21.5,4.1,21c0,0,0-0.1,0-0.1c0.3-0.4,0.7-0.8,1-1.2
				c0,0,0.1-0.1,0.1-0.1c0,0,0,0,0,0C5.3,19.4,5.4,19.4,5.5,19.3C5.4,19.3,5.5,19.3,5.5,19.3z"/>
			<path class="st21" d="M5.9,24.1c1,0,2,0.1,3,0.1c-0.1,0.2-0.3,0.4-0.4,0.6c-0.1,0.1-0.3,0.1-0.4,0.2c-0.7,0-1.5,0-2.2,0
				c-0.2,0-0.4,0-0.5,0c-0.4,0-0.9-0.1-1.3-0.1c0-0.1-0.1-0.1-0.1-0.2c0.2-0.3,0.3-0.5,0.5-0.8C4.9,23.9,5.4,24,5.9,24.1z"/>
			<path class="st29" d="M5.4,24.9c0.2,0,0.4,0,0.5,0c0,0.4,0,0.9,0,1.3c-0.2,0-0.4,0-0.5,0.1c-0.5-0.1-1-0.1-1.5-0.2
				c0-0.2,0-0.4,0-0.5C4.4,25.4,4.9,25.2,5.4,24.9z"/>
			<path class="st18" d="M5.4,26.3c0.2,0,0.4,0,0.5-0.1c0.7,0,1.4,0,2,0l0.1,0l0.1,0c0.1,0.2,0.1,0.4,0.1,0.6c0,0.1-0.1,0.2-0.1,0.3
				c-0.5-0.1-1-0.2-1.5-0.3c-0.7-0.1-1.4-0.1-2-0.1C4.7,26.5,5.4,27,5.4,26.3z"/>
			<path class="st18" d="M3.9,25.6c0,0.2,0,0.4,0,0.5c-0.7-0.5-0.7-0.9,0-1.5c0,0.1,0.1,0.1,0.1,0.2C4,25.1,4,25.3,3.9,25.6z"/>
			<path class="st21" d="M3.4,22.1c0-0.1,0.1-0.2,0.1-0.3C3.5,21.9,3.5,22,3.4,22.1z"/>
			<path class="st8" d="M3.9,21.1C3.9,21.1,4,21,4,21C4,21,3.9,21.1,3.9,21.1z"/>
			<path class="st8" d="M4.1,20.8c0,0,0,0.1,0,0.1c0,0-0.1,0-0.1,0C4.1,20.9,4.1,20.9,4.1,20.8z"/>
			<path class="st23" d="M7.1,27.7c-0.3,0.1-0.6,0.2-0.9,0.3c-0.3,0-0.5,0-0.8,0c0.3-0.1,0.6-0.2,0.9-0.2
				C6.5,27.6,6.8,27.7,7.1,27.7z"/>
			<path class="st23" d="M8,27.8c-0.1,0-0.3-0.1-0.4-0.1c0.2-0.1,0.3-0.1,0.5-0.2C8.1,27.6,8,27.7,8,27.8z"/>
			<path class="st8" d="M5.4,19.4c0,0-0.1,0.1-0.1,0.1C5.3,19.4,5.4,19.4,5.4,19.4z"/>
			<path class="st8" d="M5.3,19.5c0,0-0.1,0.1-0.1,0.1C5.2,19.6,5.2,19.5,5.3,19.5z"/>
			<path class="st18" d="M8.7,27.8c0-0.1,0-0.2,0-0.2C8.7,27.6,8.7,27.7,8.7,27.8z"/>
			<path class="st18" d="M8.8,28.5C8.8,28.4,8.7,28.4,8.8,28.5c0-0.1,0-0.1,0-0.1C8.8,28.4,8.8,28.4,8.8,28.5z"/>
			<path class="st19" d="M8.9,31.3c0,0-0.1-0.1-0.1-0.1C8.9,31.2,8.9,31.3,8.9,31.3z"/>
			<path class="st19" d="M8.8,30.9c0,0,0-0.1,0-0.1C8.8,30.8,8.8,30.8,8.8,30.9C8.9,30.9,8.8,30.9,8.8,30.9z"/>
			<path class="st18" d="M8.8,28.9C8.8,28.8,8.7,28.8,8.8,28.9c0-0.1,0-0.1,0-0.1C8.8,28.8,8.8,28.8,8.8,28.9z"/>
			<path class="st18" d="M8.5,24.8c0.1-0.2,0.3-0.4,0.4-0.6c0.4-0.2,0.7-0.3,1.1-0.5c0,0,0,0.1,0,0.1C10,23.9,9.9,24,9.9,24.1
				c0,0.1-0.1,0.1-0.1,0.2c0,0,0,0.1,0,0.1c-0.3,0.4-0.6,0.8-0.9,1.2C8.7,25.3,8.6,25,8.5,24.8z"/>
			<path class="st23" d="M8.5,24.8c0.1,0.3,0.2,0.6,0.3,0.8c0,0.1,0,0.2-0.1,0.3c-0.1,0.1-0.3,0.2-0.4,0.2c-0.1,0-0.2,0-0.3,0
				c0,0,0,0,0,0c0-0.4,0.6-0.8,0-1.2C8.3,24.9,8.4,24.8,8.5,24.8z"/>
			<path class="st18" d="M8.4,26.1c0.1-0.1,0.3-0.2,0.4-0.2c0,0.1,0,0.3,0,0.4C8.6,26.2,8.5,26.2,8.4,26.1z"/>
			<path class="st19" d="M9.8,24.3c0-0.1,0.1-0.1,0.1-0.2C9.8,24.2,9.8,24.2,9.8,24.3z"/>
			<path class="st28" d="M9.1,21c0.1,0,0.2,0,0.3,0C9.3,21,9.2,21,9.1,21z"/>
			<path class="st28" d="M9.6,21c0.1,0,0.2,0,0.3,0C9.8,21,9.7,21,9.6,21z"/>
			<path class="st8" d="M30.6,12.7c0.1,0,0.2,0,0.3,0c0,0.1-0.1,0.2-0.1,0.3C30.8,12.8,30.7,12.7,30.6,12.7z"/>
			<path class="st21" d="M32,15.3c-1.3,0-2.6,0-3.9,0c0.1-0.1,0.2-0.2,0.3-0.2c1.1,0,2.2,0,3.3,0C31.8,15,31.9,15.2,32,15.3z"/>
			<path class="st28" d="M28.8,16.7c-0.6,0-1.2,0-1.9,0c0-0.3,0-0.6-0.1-0.8c0.2-0.2,0.4-0.3,0.6-0.5c0.1,0.4-0.3,0.9,0.4,1
				c0.2,0,0.4,0,0.7,0C28.6,16.5,28.7,16.6,28.8,16.7z"/>
			<path class="st23" d="M27.8,16.4c-0.7-0.1-0.3-0.7-0.4-1c0.2,0,0.4,0,0.7,0C27.9,15.6,27.5,15.9,27.8,16.4z"/>
			<path class="st23" d="M32.4,15.6c0-0.1-0.1-0.2-0.1-0.3C32.3,15.4,32.4,15.5,32.4,15.6z"/>
			<path class="st23" d="M8.1,26.3L8.1,26.3c-0.1,0-0.1,0-0.1,0c0,0,0.1-0.1,0.1-0.1c0,0,0,0,0,0C8.1,26.2,8.1,26.2,8.1,26.3z"/>
			<path class="st30" d="M8.1,26.1c0,0-0.1,0.1-0.1,0.1c-0.7,0-1.4,0-2,0c0-0.4,0-0.9,0-1.3c0.7,0,1.5,0,2.2,0
				C8.7,25.4,8.1,25.7,8.1,26.1z"/>
			<path class="st9" d="M3.9,25.6c0-0.3,0.1-0.5,0.1-0.8c0.4,0,0.9,0.1,1.3,0.1C4.9,25.2,4.4,25.4,3.9,25.6z"/>
		</g>
	</g>
</g>
</svg>
